<?xml version="1.0" encoding="utf-8"?>
<!-- Generator: Adobe Illustrator 22.0.0, SVG Export Plug-In . SVG Version: 6.00 Build 0)  -->
<svg version="1.1" id="Layer_1" xmlns="http://www.w3.org/2000/svg" xmlns:xlink="http://www.w3.org/1999/xlink" x="0px" y="0px"
	 viewBox="0 0 400 400" style="enable-background:new 0 0 400 400;" xml:space="preserve">
<style type="text/css">
	.st0{fill:#ECF1FA;}
	.st1{fill:#3A74BA;}
</style>
<path class="st0" d="M258.1,124.2c-5.9,4.5-5.6,13.4-6.4,19.7c-2.6,20.8-4.3,41.8-6.3,62.7c-24.1-36.9-52-70.8-84.5-100.8
	c-12.3-11.3-58.4-63.3-79-41c-7.7,8.3-2.3,26.4-0.8,35.5c3.6,21,9.3,41.6,16.9,61.5c15.1,39.8,37.9,75.6,66.3,107
	c-23.5-2.3-68.7-7.6-55.4,23.1c16.2,37.5,62.2,67.7,98.4,82.7c40.2,16.8,150.8,42.4,149.5-30.1c0-0.2-0.1-0.3-0.1-0.5
	c0-0.2,0.1-0.3,0.1-0.5c-3.3-41.2-7.7-82.5-16.8-122.9c-6.6-29.3-15-62.3-37.7-83.5C293.3,128.7,270.9,114.5,258.1,124.2z"/>
<path class="st1" d="M72.8,52.2c17-0.1,33.5,3.9,48.5,11.5c-8.2-16.8-12.3-35.3-9.9-54.1c0.6-4.3,7-2.5,6.5,1.7
	c-2.2,16.7,1.3,32.2,7.9,46.6c1.4-16.3,10.3-33.2,17.4-46.3c2.1-3.8,7.8-0.4,5.8,3.4c-8.7,16-21.1,38.9-15.2,57.7c0,0,0,0,0,0
	c6.2,9.9,13.5,19.2,21.1,28.2c1-21.2,10.4-40.9,19.7-59.8c1.9-3.9,7.7-0.5,5.8,3.4c-9.9,20.1-19.9,41.1-18.8,64.1
	c4.8,5.5,9.7,10.8,14.3,16c0.7,0.8,1.4,1.6,2.2,2.4c-0.1-7.2,1.5-14.4,3.7-21.4c3.9-12.5,9.4-24.3,16.1-35.5c2.2-3.7,8-0.3,5.8,3.4
	c-6,9.9-11,20.4-14.6,31.4c-3.2,9.8-5.9,19.9-3.1,30.1c0.1,0.3,0.1,0.6,0.1,0.9c6.5,7.4,13,14.7,19.5,22.1
	c7.2-28,20.5-53.8,39.2-75.9c2.8-3.3,7.4,1.5,4.7,4.8c-18.8,22.2-31.8,48.5-38.4,76.8c0,0.2-0.1,0.3-0.1,0.4
	c4.5,5.1,9.1,10.2,13.6,15.3c1.2,1.3,2.3,2.7,3.5,4c10-30.3,27.3-57.6,50.5-79.6c3.1-2.9,7.8,1.8,4.7,4.8
	c-23.3,22.1-40.4,49.5-49.9,80.1c-0.1,0.2-0.1,0.3-0.2,0.5c6,6.9,11.9,14,17.3,21.4c7-26.8,22.6-50.8,44.4-68.1
	c3.3-2.6,8,2.1,4.7,4.8c-22.5,17.9-38,42.6-44,70.7c0.8,1.2,1.6,2.4,2.4,3.7c2.7,4.2,5.1,8.6,7.3,13.1c5.8-22.1,22.2-42.4,38-57.6
	c3.1-3,7.8,1.8,4.7,4.8c-16.9,16.3-35.8,39.6-37.9,64c3.5,9.7,5.6,19.8,5.6,30.4c0,4.3-6.7,4.3-6.7,0c0-3-0.2-6-0.6-8.9
	c-0.2-0.2-0.5-0.5-0.7-0.8c-9.6-17-30.4-26-48.2-31.7c-18-5.7-36.9-8.5-55.6-11.2c-4.2-0.6-2.5-7.1,1.7-6.5
	c21.1,3.1,42.4,6.2,62.5,13.6c13.1,4.8,27,11.5,37.1,21.6c-0.4-1.2-0.7-2.3-1.1-3.5c-0.5-0.5-0.9-1.3-0.8-2.3
	c-4-10.7-9.9-20.7-16.7-30.2c-32-16.3-66.9-26.1-102.7-28.9c-4.3-0.3-4.3-7,0-6.7c32.5,2.5,64.2,10.6,93.8,24
	c-7.5-9.3-15.6-18.1-23.1-26.7c-0.2-0.2-0.4-0.4-0.5-0.6c-0.4-0.1-0.8-0.2-1.3-0.4c-24.1-13.6-51.3-19.9-79-18.5
	c-4.3,0.2-4.3-6.5,0-6.7c23.7-1.2,47.2,3.2,68.8,12.7c-8.6-9.7-17.2-19.4-25.8-29.1c-0.4-0.1-0.8-0.2-1.3-0.4
	c-19.3-11.1-41.8-11.4-63.4-11.5c-4.3,0-4.3-6.7,0-6.7c18.2,0.1,36.9,0.5,54.1,6.6c-0.3-0.4-0.7-0.8-1-1.1
	c-6.6-7.4-13.2-14.8-19.5-22.5c-0.3-0.1-0.6-0.2-0.9-0.3c-15.2-8.2-32-11.3-49.1-9.3c-4.3,0.5-4.2-6.2,0-6.7
	c14.1-1.6,28.1,0.2,41.2,5.1c-3.2-4.4-6.3-8.9-9.2-13.6c-0.1-0.1-0.2-0.1-0.3-0.2c-16.3-10.6-34.9-16-54.3-15.9
	C68.5,58.9,68.5,52.2,72.8,52.2z"/>
</svg>
