<?xml version="1.0" encoding="utf-8"?>
<!-- Generator: Adobe Illustrator 22.0.0, SVG Export Plug-In . SVG Version: 6.00 Build 0)  -->
<svg version="1.1" id="Layer_1" xmlns="http://www.w3.org/2000/svg" xmlns:xlink="http://www.w3.org/1999/xlink" x="0px" y="0px"
	 viewBox="0 0 2000 2000" style="enable-background:new 0 0 2000 2000;" xml:space="preserve">
<style type="text/css">
	.st0{fill:#3A74BA;}
</style>
<path class="st0" d="M1896.6,854.9c23.7-3,46.5-9.7,65.7-25c20.1-16.1,41.6-48,28-74.7c-33.2-65-130.9,22.3-159,63
	c-62.9-34.3-130.7-54.8-201.5-60.1c83.1-45.9,158.3-106,221.1-178.5c54.9,9.3,177.4,12.9,161.8-70c-10.7-57.1-82.4-29.9-130.9,0.2
	c4.2-23.7,4.3-47.8-4.9-70.8c-9.7-24.1-33.9-53.6-63.5-48c-31.1,5.8-32.8,44.7-30.8,69.5c2.9,36.9,17.9,70.3,41.5,97.9
	c-114.7,133-274,221.6-445.8,255.1c50.6-48.3,78.5-117,100.7-185.1c58.6-5.7,152.7-29.9,127.9-99.5c-20.8-58.1-87-14.9-129,26.1
	c-1.1-24.4-6.2-48.3-20.7-68.9c-14.9-21.2-45.1-44.7-72.6-32.2c-28.9,13.1-21.4,51-14.1,74.8c11.5,37.6,36,68.1,67.9,90.2
	c0.8,3.1,2.4,5.9,5,7.9c-26.6,80-60.9,160.3-141.5,197.8c-44.3,4-96.5,4.5-150-0.5c24.6-54.1,39.7-111.7,38.2-171.2
	c-2.4-94.8-48.7-195.2-139.5-234.6c-83.9-36.4-193.6-15.8-239.8,68.6c-47.3,86.4-14.8,196.6,52.9,261.9
	c63,60.7,149.7,90.8,236.9,104.3c-81.9,152.4-236,272.8-381.6,354.4c46.6-72.9,70.6-156.8,86.3-243C861.3,953,972,912,925.4,843.5
	c-31.7-46.6-87.3,1.6-122.2,46.2c-3.8-23.3-11.3-45.6-27.1-64.2c-17.2-20.2-51.1-40.9-77.4-24.6c-28.2,17.4-14.5,56.2-3.3,79.7
	c16.5,34.6,43.5,59.7,76.5,77.5c-18.5,102.8-48.9,205.5-121.6,283.7c-0.9,0.9-1.6,1.9-2.2,2.9c-127.4,63.6-265.6,113.6-406.4,145.8
	c75-50.1,139-115.5,189.9-190.7c48.2-6.5,184.9-48.5,134-123.3c-31.7-46.6-87.3,1.6-122.2,46.2c-3.8-23.3-11.3-45.6-27.1-64.2
	c-17.2-20.2-51.1-40.9-77.4-24.6c-28.2,17.4-14.5,56.2-3.3,79.7c14.6,30.5,37.3,53.6,65,70.9c-66.7,97.1-155.4,176.1-263.1,225.2
	c-1.3,0.6-2.4,1.3-3.4,2c-46.8,7.5-93.6,13.1-140.2,16.3c-21.9,1.5-15.3,35.2,6.5,33.7c138-9.6,279.4-38.8,415.5-83.6
	c2.8,1.4,6.1,2.1,9.8,1.7c93.3-9.8,180,26.3,262.4,66c-2.2,57.7,11.3,172.7,88.4,144.6c53-19.3,19.7-85-15.1-129.7
	c23.4,1.9,46.7-0.2,68.4-11c23.9-11.9,51.9-39.6,42.8-69.1c-9.8-31.7-51-27.8-76.4-22.6c-37.9,7.8-69.2,28.2-94.6,56.5
	c-64.4-30.8-130-58.2-199.6-67.1c89.3-34.4,175.3-75.4,255.2-122.3c37-21.7,72.9-45.2,107.4-70.5c1-0.3,2-0.7,3.1-1.2
	c97-50.9,203.8-69.6,311.7-55.4c0.1,3.2,1.1,6.6,3.5,9.8c24.7,33.7,59.1,71.6,100.8,83.1c25.8,7.1,59.6,1.2,72.9-25
	c25.5-50.2-43.8-75.2-99.8-84.1c15.3-12.2,28.8-26.3,37.8-44.3c12.8-25.6,19.6-67.6-7-87.8c-27.3-20.6-55.9,7.5-71.8,28.2
	c-19.5,25.2-30.4,55-33.4,86c-77.1-10.3-154.4-4.2-228,17.5c29-26.3,56.7-54.1,82.5-83.9c36.4-42,71.3-89.2,98.7-140
	c19.2,2.1,38.3,3.5,57.1,4.3c37.9,1.6,75.7,0.5,113.2-3.1c1.4,0.1,2.9,0,4.4-0.4c87.8-8.9,173.6-31.9,253.9-67.5
	c1.4,0.3,2.9,0.5,4.5,0.4c89.7-3.7,175.3,16.3,252.9,60.4c4.1,36.7,13.7,78.6,37.7,106.6c18.4,21.5,52.9,37.7,79.6,20.4
	C1985.5,948.1,1939.8,891.3,1896.6,854.9z M823.2,567c6.9-115.3,132.8-163.1,227.6-110.8c98.6,54.4,120.5,184.7,94.3,285
	c-7.1,27.1-16.6,53.3-28.1,78.7C964,798.7,813.4,729.8,823.2,567z"/>
</svg>
