<?xml version="1.0" encoding="utf-8"?>
<!-- Generator: Adobe Illustrator 22.0.0, SVG Export Plug-In . SVG Version: 6.00 Build 0)  -->
<svg version="1.1" id="Layer_1" xmlns="http://www.w3.org/2000/svg" xmlns:xlink="http://www.w3.org/1999/xlink" x="0px" y="0px"
	 viewBox="0 0 1400 800" style="enable-background:new 0 0 1400 800;" xml:space="preserve">
<style type="text/css">
	.st0{fill:#F6C2AD;}
</style>
<path class="st0" d="M1447.7,718.2c7-10,1.2-16-9.5-18.5c-22.7-5.4-47.6-1.4-70,3.8c-21.3,5-41.8,13.6-58.9,27.5
	c-4.5,3.7-8.6,8-13.7,10.9c-5.1,2.9-11,4.1-16.6,6c-10.9,3.6-21.6,8-32.7,10.8c9.6-12.2,18.4-24.4,25.1-38.4
	c3.2-6.6,6.5-13.7,8.4-20.9c1.7-6.6,1.2-11.9,8.8-13.6c6.6-1.5,13.6-0.7,20.3-2.5c6.1-1.6,11.9-4.3,17.1-7.8
	c11.1-7.6,20.1-19,26.5-30.7c11.4-20.7,15.3-46.5,10.3-69.7c-5.5-25.5-24.2-48.3-44.7-63.6c-10.2-7.6-21.7-14.6-33.7-18.8
	c-7.1-2.5-14.7-3.4-21.1,1.3c-7.7,5.7-11.4,16.3-15.2,24.6c-5.2,11.4-9.7,23.1-13.3,35.1c-13.1,44.2-13.2,94,26.5,124.2
	c9.3,7.1,11.4,16.1,6.6,27.1c-5.2,11.8-13.7,24.2-22,34c-9.2,10.9-19.4,21-29.5,31.1c-9.4,9.5-18.4,19.9-29.4,27.6
	c4.8-30.3,4.9-60.6-5.8-89.8c-5.1-14-12.1-27.4-20.7-39.5c-7.6-10.7-17.1-23.3-28.3-30.5c-8.4-5.4-13.6,0.2-18.1,7.5
	c-7.9,12.8-13.7,27.4-17.7,41.8c-7.4,26.9-4.6,55.5,9.9,79.6c6.9,11.5,16.3,21.2,27.4,28.6c6.2,4.2,13,7.9,20.1,10.5
	c6.2,2.3,12.8,2.7,19.3,4c-0.2,2.2-5.1,5.4-6.8,7c-3,2.8-5.9,5.6-8.9,8.4c-5.6,5.2-11.1,10.4-16.7,15.6c-4.3,4-27.5,19.6-17.8,26
	c4.4,2.9,7.5-0.2,10.2-3.5c4.5-5.6,8.4-11.4,13.6-16.3c10.5-10,21.7-19.3,32.4-29c18.5-16.9,36.7-33.6,58.8-45.8
	c11-6,22.5-10.7,34.3-14.8c5.7-2,11.4-3.9,17.2-5.8c3.9-1.3,8.7-4.1,12.8-2.2c5.1,2.4,10,9.8,14.4,13.4c4,3.3,8.3,6.3,13.1,8.5
	c9.2,4.3,19.3,5.6,29.3,4.7c23.9-2.2,45.1-16.8,62.8-32.1C1430.7,736.2,1441,727.9,1447.7,718.2z M1309.5,645.6
	c-4.8,1.8-15,6.6-19.1,3.3c-4.1-3.2,1.1-24.9,2.3-30.9c0.8-1.4,2.2-2.6,4.4-3.7c4.4-2.3,8.9-4.3,13.1-7c8.7-5.4,16.5-11.9,23.9-19
	c7-6.7,12.9-14.9,20.3-21.2c8.9,15.7,10.2,44.4-4.4,56.7C1337.8,634.2,1323.9,640.1,1309.5,645.6z M1334.7,534.9
	c2.4-0.1,7.2,6.8,8.6,8.7c3.8,5,11.3,14.5,7.8,20.8c-4.1,7.4-12.3,14.4-18.3,20.3c-6.1,6-12.7,11.6-19.7,16.6
	c-5.3,3.8-13.5,10.9-20.2,10.6c0.1-8.3-2-20.2,0.7-28c1.4-4.1,5.9-6.3,9-9c3.3-2.9,6.4-6,9.3-9.3c6.2-6.9,11.4-14.6,16.3-22.5
	C1329.5,541.1,1331.7,535,1334.7,534.9z M1324.4,523.6c1.4,1.4,4,3.3,4.9,5.1c1.6,3.3,0.3,4.3-1.6,7.8c-2.8,5.2-5.9,10.3-9.3,15.1
	c-7.1,10.1-15.4,19.3-24.9,27.3c-3.5-28.2-9.4-54.6-17.5-81.9C1293.9,497.9,1312.2,511.8,1324.4,523.6z M1242,552.8
	c-0.6-9.8,6.6-21.5,10.3-30.2c4.2-9.8,9.2-22.1,19.3-27.2c11.2,31.5,17.7,64.7,17.1,98.2c-11.4-5.1-21.7-12-31.2-20.1
	C1251,568.1,1242.6,562.1,1242,552.8z M1233.2,584.4c1.1-8.5,3.1-16.9,6.2-24.9c6.4,6.6,12.6,14.4,20.2,19.8
	c7.6,5.3,15.9,9.6,23.6,14.7c6.5,4.4,5.5,9.3,4.6,16.4c-0.6,4.8-1.1,9.7-1.5,14.5c-0.2,2.6-0.1,6.3-0.8,8.8
	c-0.9,3.1,0.3,2.6-3.1,2.8c-8,0.4-16.8-6.7-23-10.9c-8-5.5-15.6-11.6-21.9-19C1231.3,599.2,1232,593.5,1233.2,584.4z M1232.3,605.9
	c14.8,12,28.6,25.2,46.1,32.9c7.1,3.1,4.3,8.1,2.9,14.8c-2,9.1-4.2,18.2-7.9,26.9C1247.6,670.6,1227.2,633.1,1232.3,605.9z
	 M1279.9,680.4c1.3-5.5,2.6-11,4-16.4c0.3-1.2,0.6-2.3,0.9-3.2c2.7-3.5,5.7-6.2,9.9-7.9c0.5-0.2,0.9-0.3,1.4-0.5
	c1.1-0.2,2.1-0.6,3.2-0.9c2-0.5,4-1,6-1.7c0,0,0,0,0,0c18.2-4.8,35.3-12.9,49.8-25.6C1346.1,659.1,1317.1,684.2,1279.9,680.4z
	 M1185.7,768.8c-1,10.5-1.2,20.2-5.7,29.7c-3.5-4.2-5.8-9.3-4.3-14.8C1177,779.3,1181.9,771,1185.7,768.8z M1184.7,757.9
	c-2.1,9.2-7.6,17.2-12.7,24.9c-2.4-4.5-6.7-9.9-7.9-15c-1.2-4.8,2-9.1,4-13.3c1.7-3.5,14.9-27.4,14.3-28.2
	C1183.8,736.5,1187.1,747.7,1184.7,757.9z M1178,725.2c-4,12.5-10.1,24.1-17.1,35.2c-3.5-6-6.5-12.2-9.1-18.6
	c-1.9-4.7-6-11.8-4.7-16.9c1.5-6.1,7.2-12.7,10.4-18c3.4-5.7,6.8-11.4,10.3-17.2C1173.8,698.9,1181.5,714.2,1178,725.2z
	 M1163.4,682.5c0.9,4-1.1,8.2-2.5,11.8c-3.7,9.6-8.9,18.7-15.6,26.6c-3.5-5.7-8.3-17.6-6.8-24.3c0.9-4,5.3-9,7.5-12.6
	c3-4.9,6.1-9.8,9.1-14.7C1157.8,673.2,1162.4,677.7,1163.4,682.5z M1142,653.5c2.6,2.9,7.8,7.2,8.6,11.1c1.6,7.8-8.5,21.1-13.6,26.1
	c-4-7.2-5.4-16.4-6.7-24.4c-1.2-7.5-3-16.7-1-24.1C1134.1,645.2,1138.2,649.3,1142,653.5z M1107.1,673.4c-0.6-5.6,4.3-11.9,6.6-16.7
	c2.8-5.6,5.7-10.3,9.6-15.2c2.9,18,5.7,35.9,8.6,53.9C1124.2,692.4,1108.2,682.9,1107.1,673.4z M1104.8,678.2c8,7.2,16.5,13,25,19.4
	c7.3,5.4,8.2,16.9,10.6,25.2c-2.2-0.4-4.4-0.7-6.6-1.1c-4.9-1.6-9.7-3.1-14.4-5.8c-0.7-0.4-1.3-0.8-2-1.2c-0.4-0.3-0.8-0.6-1.3-0.9
	c-5.2-3.7-9.5-8.1-14.3-12.4c-0.3-0.6-0.7-1.2-1-1.8C1098.3,692.8,1102.7,684.7,1104.8,678.2z M1099.8,738.4
	c-1.6-6-2.5-12.1-2.6-18.3c-0.1-5.7,2-12.3,1.7-17.5c2,1.5,4,3.1,6,4.6c8.2,10,22.8,18.4,34.7,19.4c1.8,1.4,3.4,3.1,4.5,5.6
	c3,6.7,5.4,13.8,8.2,20.7c1.2,3,4.8,9.1,3.4,11.3c-1.3,2-6.2,2.6-8.3,2.9c-6.5,0.8-13.5-0.6-19.7-2.4c-6.3-1.9-14.4-4.7-19.5-9
	C1103.2,751.4,1101.3,744.4,1099.8,738.4z M1137.5,792.6c-5.7-2.6-10.2-7.8-14.4-12.3c-6.1-6.4-12.2-13-15.4-21.4
	c10.2,4.7,20.6,10,32,11.1c5.4,0.5,10.3-1.4,15.4-1.8c0.9,0.5,1.9,0.4,2.9,0.6c0.2,0,0.3,0.1,0.5,0.1c0.2,0.1,0.4,0.2,0.7,0.3
	c0.3,0.1,0.6,0.3,0.8,0.5l2.1,4.4c1.5,3.1,2.9,6.3,4.4,9.4C1158.9,790,1147.9,797.3,1137.5,792.6z M1146.2,798
	c3.8-1.8,7.7-3.6,11.5-5.3c2.4-1.1,7.2-4.6,9.8-4.5c3.6,0,9.5,13.4,11.7,17.3C1167.6,806.4,1156.5,803.6,1146.2,798z M1436.5,706.8
	c-8,3.6-15.9,7.1-24.3,10.9C1415.2,703.1,1419.7,700.9,1436.5,706.8z M1391.9,706.5c5.9-4.3,16.6-3.2,23.6-3.8
	c-4.1,6.1-6.8,14.4-12.9,18.7c-6.8,4.7-16.6,6.5-24.3,9.2C1380.6,722.8,1385.2,711.5,1391.9,706.5z M1366.6,711.5
	c4.7-4.8,13.6-4.8,19.8-5.8c-2,4-3.9,7.5-6.3,11.2c-2.5,3.8-3,8.4-5.6,12.1c-4.6,6.5-13.3,6.2-20.4,7.4
	C1355.9,728.3,1360.6,717.6,1366.6,711.5z M1305.4,742.1c16-14.6,34.8-25.2,55.8-30.6c-2.9,6.1-5.7,12.2-8.6,18.3
	c-2.8,5.8-3.9,8.2-10.3,9.6C1330.4,742.1,1317.6,743.2,1305.4,742.1z M1306.9,746.7c5.6-0.2,13.9-2.5,18.4,1.5
	c5.1,4.7,8.9,13.1,12.8,18.9C1325.7,763.9,1316.1,755,1306.9,746.7z M1370.9,756.8l9.8,6.6c-8.7,5-21.6,8.8-31.7,6.5
	c-9.9-2.2-18.4-15.2-20.9-24.3c8.7-1,17.5-2,26.2-3c1.1,0.3,2.1,0.8,3,1.5c3.1,2.4,3.2,4.8,8.6,9.1c1.6,1.3,3.3,2.5,4.9,3.6
	 M1370.1,751.3c-2.3-1.9-8.6-7.6-6-11c0,0,0,0,0,0c0.1,0,0.1,0,0.2,0c5.1-1.6,10.2-3.7,15.2-5.4c4.6-1.5,9.6-4.1,14.6-4.4
	c5-1,8.7,6,19.5,9.4c0.5,0.2,0.9,0.4,1.4,0.7c-4.3,4.7-9.3,8.7-14.6,12.3c-3.6,2.4-9.8,7.4-14.1,8
	C1381.1,761.5,1375.2,756.6,1370.1,751.3z M1423.5,733.9c-6.4,5.7-18.1,1.1-22.9-5.6c14.8-6.6,29.7-13.2,44.5-19.8
	C1441.7,718.4,1431.4,726.9,1423.5,733.9z"/>
<path class="st0" d="M1377.1,284.1c19.6,22.4,64,31.4,93.2,26.4c-4.3,3.4-8.6,6.8-13,10.1c-5.9,4.4-12,8.8-18,13
	c0,0-0.1-0.1-0.1-0.1c-17-11.7-39.9-19.1-59.6-24.8c-17.8-5.2-35.3-6.4-50.7,5.2c-1.8,1.4-2.3,4.5,0.1,5.7
	c31.7,15.4,65.8,22.7,100.9,20.5c-11,7.4-22.2,14.5-33.7,21.3c0,0-0.1,0.1-0.1,0.1c-0.1-0.1-0.3-0.1-0.5-0.1c0-1.3-0.7-2.5-2.3-3
	c-33.6-10.5-71.2-29.4-105.3-10.2c-1.9,1.1-2.1,4.5,0.1,5.4c31.2,13,64.7,18.9,98.1,13.6c-11.8,6.6-23.7,12.6-35.8,18.3
	c-15.5-6.6-31.6-11.6-48.1-14.7c-13.3-2.6-28.8-6.3-41,1.4c-2,1.3-1.9,4.2,0.1,5.3c21.8,12.4,46.7,18.3,71.4,15.9
	c-9.8,4.3-19.7,8.5-29.6,12.5c-7.3-8.9-24.7-13.4-34.9-16.1c-14.7-3.9-29.7-3.3-42.7,5c-2.2,1.4-1.8,4,0.1,5.4
	c16.7,11.9,38.2,14.6,58.6,13.4c-8.4,3.3-16.8,6.7-25.2,10.1c-0.4-1.2-1.4-2.1-2.9-2.1c0,0,0,0,0-0.1c-18.7,0.2-55.9,11.1-57.3,34.3
	c-0.1,2.1,2.1,3.3,3.9,2.9c7.1-1.6,56.7-18.8,54.4-30.9c8.8-1.9,17.5-4.3,26.2-6.9c-12.7,11.2-23.5,24.4-32.6,38.8
	c-1.4,2.2,1.1,5.3,3.5,4.4c23.2-8.2,42.1-25.9,49.4-49.8c0-0.1,0-0.2,0-0.3c11.8-4.3,23.5-9.2,35.1-14.5
	c-17.3,14.3-30.7,32.6-40,53.1c-1.1,2.5,1.6,5.9,4.2,4c13.8-10,27.7-20.8,38-34.5c5.8-7.7,13.6-19.3,12.9-29.8
	c12-5.9,23.7-12.2,35.2-18.8c-16.3,21.5-26.8,46.3-31.2,73.2c-0.5,3.1,2.8,4.8,5.1,2.8c23.7-20.4,40.4-50.9,39.9-82.7
	c0-0.5-0.2-0.8-0.5-1.1c7.1-4.3,14.2-8.6,21.1-13.1c1.2-0.8,3.2-2,5.6-3.6c-12.4,23.8-14.4,54.8-11.1,80.5c0.3,2.3,3.3,4.2,5.1,2
	c11.9-14.7,17.9-31.9,20.2-50.5c1.1-9.2,5.1-31-1.8-40.1c8.6-5.8,19.1-13,29.7-20.9c-6.6,25-6,51.3,0.7,76.3
	c0.7,2.4,4.5,3.1,5.6,0.6c12-26.7,15.9-58.4,6.2-86.5c24.6-19.2,45.4-39.2,37.8-47.7c-1.7-1.9-4.8,0.2-4.1,2.5
	c2.4,8.2-20.2,23.2-25.4,27.7c-5.4,4.6-10.8,9.2-16.4,13.6c0-1.1-0.4-2.2-1.5-3c-25.5-17.1-64.7-35.4-95.6-24.8
	C1375.9,279.4,1375.4,282.2,1377.1,284.1z M1337.4,316.2c28.7-15.1,65.6,9.4,94,20.1C1398.6,336.5,1367,330.1,1337.4,316.2z
	 M1297.2,350.6c29.4-11.4,58.6,3.1,87.4,11.8C1354.8,365.4,1325.1,362.5,1297.2,350.6z M1269.9,374.7c12.2-3.7,28.1,1.3,39.6,4.1
	c10.4,2.5,20.5,5.8,30.5,9.6C1315.4,390.3,1291.8,386.1,1269.9,374.7z M1231.6,441.9c-8.2,4.3-16.7,7.2-25.6,9.4
	c3.6-8.2,15.4-14,22.4-17.1c7.9-3.5,15.9-5.1,24.3-6.1C1248.6,433.5,1234.7,440.2,1231.6,441.9z M1233.1,397.5
	c20.2-9.2,44,0.3,62.7,11C1274.2,407.6,1252,409.3,1233.1,397.5z M1261.8,454c9.9-13.6,21.3-25.3,34.3-36.3c0.1-0.1,0.2-0.2,0.3-0.3
	c0,0,0,0,0,0C1288.7,433.4,1277.4,446.1,1261.8,454z M1309.8,443.9c9.8-17.5,22.7-32.1,38.5-45
	C1344.1,416.3,1325,432.5,1309.8,443.9z M1365.6,438.5c5.5-24.7,16.5-47,32.5-66.8C1393.6,397.5,1383.9,420,1365.6,438.5z
	 M1436.8,385.8c-2.2,12.8-6.6,24.7-13.7,35.3c-1-12.6-0.7-25.2,1.5-37.8c2.5-14.2,8.3-26.7,13-40.2c0-0.1,0-0.1,0-0.1
	c0.1-0.1,0.2-0.1,0.3-0.2C1442.7,353.8,1438.5,376.2,1436.8,385.8z M1475.6,385c-4.8-24-3.2-47.8,3.6-71.5c0.4-0.3,0.9-0.7,1.3-1
	C1484.7,337.6,1484.2,361.4,1475.6,385z M1466.1,306.5c-27.1-1.9-60.1-3.7-80.5-23.1C1412.9,277.6,1442.4,293.2,1466.1,306.5z"/>
<path class="st0" d="M932.4,741.9c-6.7-8.1-14.2-15.4-22.9-21.4c-5.1-3.5-22-15.1-29.1-12.3c-11.3,4.5,9.6,32.4,12.6,37.1
	c13.4,20.9,30.5,37.4,50.4,51.4c-22.9-5.4-45.3-12.3-67.5-20c3.3-18.2-14.8-41.8-25.5-54.4c-8.8-10.4-25.9-31.6-41.6-27.1
	c-1.5,0.4-2.1,2.1-1.8,3.5c7.4,27.5,23.3,52.6,45.9,69.8c-9-3.3-17.9-6.7-26.9-10.1c0-0.6-0.4-1.2-1-1.6c0.1-0.5,0-1.1-0.5-1.7
	c-16.2-19.5-38.2-35.9-57.9-51.7c-6.5-5.2-14.7-11.2-17.6-0.2c-3.4,12.7,11.4,28.8,19.8,36.3c14.5,12.8,33.9,24.5,53.9,22
	c0.2,0,0.3-0.1,0.5-0.1c12.2,5.9,24.8,11.4,37.7,16.5c1.1,1.9,2.9,3.1,5.2,2c2.3,0.9,4.5,1.8,6.8,2.6c0,0.1,0,0.2,0,0.4
	c-0.3-0.4-0.8-0.8-1.4-0.9c-27.3-4.5-70-15.6-94.4,2.7c-1.5,1.1-1.6,3.5,0.2,4.3c21.6,10.5,45.6,14.8,69.4,10.5
	c7.6-1.4,31.3-4.6,28.6-16.2c11.5,4.3,23.3,8.2,35.2,11.7c-14.7,1.8-29.3,7.1-42.3,12.9c-6.8,3-29.8,9.8-24,19.9
	c5.8,10.2,40.1,3.7,49.1,1.9c17.7-3.5,35.5-10.7,44.1-27.4c17.7,4.3,35.7,7.7,53.7,9.9c-23.4,5.2-45.5,18.6-62.8,34
	c-1.9,1.7,0.1,4.2,2.1,4.3c31.9,1.2,64.7-9.4,85.6-34.5c0.4-0.5,0.5-0.9,0.4-1.4c20.6,1.4,41.1,1.1,61.4-0.9
	c-23.8,12.7-47,26.6-64.1,48c-1.4,1.8-0.2,4.3,2.1,4.3c19.2-0.1,37.5-6.1,53-17.6c10.9-8.2,25.4-22.2,27-36.9
	c15-2.3,29.9-5.7,44.4-10.3c3-0.9,1.4-5.3-1.5-4.6c-28.8,6.8-57.2,10.7-85.8,11.6c-1.3-20-19.5-33.7-34.6-44.7
	c-16.1-11.7-36.2-26.1-57.1-22.1c-2,0.4-3.3,2.3-2.1,4.2c16.2,26.5,46.4,52.4,77.1,62.7c-18.3-0.2-36.8-1.7-55.5-4.5
	c-7-1.1-13.9-2.3-20.9-3.7C966,781.6,942.7,754.4,932.4,741.9z M776.1,738.1c-6.5-5.3-26.1-22.7-16.8-28.6
	c7-4.5,34.1,22.9,50.5,38.8c-14.4-8.7-27.5-18.5-39.9-30.7c-0.9-0.9-2.6,0.5-1.7,1.5c12.3,15.3,28.2,28.6,45.9,37.6
	C799.9,754.1,787.4,747.4,776.1,738.1z M872,774.7c-0.6-0.3-1.1-0.7-1.7-1.1c-0.1-6.9-10.1-15.9-12.9-19.6
	c-9.4-12.4-19.3-26.9-31.4-36.7c-1.5-1.2-3.8,0.6-2.7,2.3c6.3,9.5,14.8,17.6,22,26.4c3.2,4,6.4,7.9,9.5,12c1.9,2.5,4.4,7,7.3,10.4
	c-9.3-6.5-17.8-13.8-25.2-22.6c-4.9-5.9-9.3-12.2-13.1-18.9c-2.4-4.3-10.8-17.8-9.8-23c1.3-6.9,12.2,3.3,16.4,6.7
	c6.7,5.6,12.8,11.9,18.3,18.7c8.8,10.9,24.2,30.6,23.6,45.9C872.3,774.9,872.2,774.8,872,774.7z M868.3,789
	c-11.1,6.7-39.1,7.2-44.9,7c-14.1-0.6-27-3.9-39.8-9.6c21.3-12.2,55.2-5.1,79.6-1c-17.9,3.5-35.4,4.7-53.8,3.7
	c-1.5-0.1-1.6,2.4-0.2,2.6C828.8,794.6,849,793.6,868.3,789z M933.9,801.8c-8.9,12.3-21.8,18.6-36.4,22c-6.6,1.5-46,7.5-47.3,0.8
	c-1-5.4,29.5-15.7,35.8-17.8c13.2-4.4,26.8-7.6,40.7-6.5c-8.2,3.6-16.2,7.4-24.7,10.4c-10.5,3.7-21.3,6.7-31.5,11.1
	c-0.8,0.3-0.6,1.7,0.3,1.5C891.6,819.7,915.8,813.1,933.9,801.8z M936.8,845.5c19.9-16.5,42.2-24.4,67.1-30.1
	c-16.9,8.9-33.7,17.4-51.7,24.2c-0.8,0.3-0.4,1.5,0.4,1.3c19.7-5.7,39.7-13.3,57.2-24.3C989.8,835.9,964.4,844.8,936.8,845.5z
	 M1021.1,860.7c15.8-17.9,36.1-30.2,57.1-41.4c-11.2,12.3-23.9,22.9-38.4,31.4c-1.2,0.7,0,2.4,1.2,1.8c18.6-10,35.3-22.9,48.8-39.3
	c0-0.1,0.1-0.1,0.1-0.2c0.2-0.2,0.3-0.5,0.4-0.7c0.4-0.1,0.7-0.1,1.1-0.1C1076.5,839.7,1052.9,858.1,1021.1,860.7z M1047,806.3
	c-31.4-8.2-63.2-32.6-81.2-59.8c16.6-0.8,33,10.4,46,19.3c13.2,9.1,30.2,20.7,35.6,36.7c-19.2-15.6-38.5-31.3-58.3-46.2
	c-2.3-1.7-5.3,1.5-3,3.4c19.6,15.8,40,30.8,60.3,45.8c0.7,0.5,1.4,0.4,1.9,0c0.2,0.8,0.4,1.6,0.5,2.4
	C1048.5,807.2,1047.9,806.6,1047,806.3z M901,739c8.3,8.7,17.8,16.3,26.1,25.1c7.8,8.3,21.5,20.8,26,32.8
	c-27.1-19.7-49.8-40.9-65.4-71.6c-10.8-21.1,5.1-8.7,14.4-3.2c8.2,4.9,15.5,11.2,22,18.2c9.2,10,34.1,39.8,32.1,57
	c-2.6-11.1-12.8-21.6-19.7-29.8c-9.7-11.5-20.5-23.6-33.1-32C901.3,734.1,899.5,737.4,901,739z"/>
<path class="st0" d="M151.3,216.7c21.4-24.5,37.1-53.2,52.3-81.7c17.2-32.2,34-64.6,51.2-96.8c0.3-0.5,0.4-1,0.3-1.5
	c0.1-0.5-0.1-1.1-0.5-1.5c-0.7-1.1-2.1-1.7-3.5-1.4C219.8,40,189.3,50,160.4,63.5c-0.5-0.9-2.3-0.5-2.2,0.7c0,0.1,0,0.2,0,0.3
	c-28.8,13.8-55.9,31.1-80.5,51.6c-0.5-0.2-1.2,0-1.2,0.7c0,0.1,0,0.2,0,0.3c-2.5,2.1-5,4.3-7.5,6.5c-38.5,34.2-86.8,89.9-55.6,143.3
	c-10.8,13.4-21.4,27-31.7,40.6c-2,2.6,1.7,6.1,3.8,3.5c11.1-14.3,22.5-28.5,34-42.5c0.4,0.4,0.8,0.7,1.5,0.8
	C71,280.7,119.3,253.5,151.3,216.7z M167.4,184.9C167.4,184.9,167.4,184.8,167.4,184.9c-23.3-2.4-47-4-70.4-3.6
	c3.1-3.2,6.1-6.4,9.2-9.5c22.8,0.3,45.7,2.1,68.4,2.3C172.3,177.6,169.9,181.3,167.4,184.9z M177.4,169.7c-22-3.2-45.7-2.7-68-1.3
	c0.8-0.8,1.6-1.7,2.4-2.5c10.6-10.7,21.4-21.1,32.3-31.4c0.2,0.5,0.7,1,1.4,1c16.4,1.1,33,4.3,49.4,4.6
	C189.4,150.2,183.5,160,177.4,169.7z M208.7,114.8c-3.9,7.4-7.8,14.7-11.9,22c-0.1-0.1-0.2-0.1-0.4-0.2c-15.7-4.3-34-4.1-50.2-4.2
	c7.8-7.3,15.7-14.6,23.7-21.8c12.7,1.3,25.4,2.4,38.1,4.2C208.3,114.9,208.5,114.8,208.7,114.8z M210.7,110.9
	c-0.3-0.5-0.8-0.8-1.6-0.9c-11.9-1.3-24.3-2.1-36.3-1.9c6-5.4,12.1-10.8,18.1-16.1c4.7-0.3,9.3-0.3,14-0.1c4.9,0.3,9.8,1.3,14.7,1.6
	C216.7,99.4,213.7,105.2,210.7,110.9z M221.4,90.1c-8.1-2.4-17.9-2.1-26.8-1.2c5.1-4.5,10.3-8.9,15.4-13.4c3.2,0.6,6.5,0.9,9.7,1.2
	c2.6,0.3,5.4,0.7,8.1,0.6C225.7,81.6,223.6,85.8,221.4,90.1z M243.2,47.2c-4.5,8.6-8.9,17.4-13.3,26.1c-3.4-0.5-7.1-0.3-10.5-0.5
	c-1.9-0.1-3.8-0.3-5.7-0.5c1.2-1,2.3-2,3.4-3c1,0.5,2.4-0.1,2.4-1.6c0-0.2,0-0.3,0-0.5C227.4,60.6,235.3,53.9,243.2,47.2z
	 M243.8,41.8c-8.3,6.2-16.5,12.6-24.7,19c-0.1-1.2-0.2-2.4-0.2-3.5c0-3.1,0.3-6.1,0.8-9.1C227.6,45.8,235.7,43.6,243.8,41.8z
	 M215.9,49.3c-0.4,2.5-0.7,5-0.8,7.6c-0.1,2.2-0.1,4.7,0.1,7c-4.3,3.4-8.6,6.9-12.9,10.4c0.1-6.8-0.5-13.6-0.8-20.3
	C206.3,52.3,211.1,50.8,215.9,49.3z M199.2,54.8c-0.3,7.4-0.8,15-0.3,22.4c-5.5,4.6-10.9,9.2-16.4,13.8c-0.1-4.6-1-9.3-1.5-13.9
	c-0.6-4.9-1.2-9.8-1.8-14.8C185.8,59.7,192.5,57.2,199.2,54.8z M130.6,86.7c0.4,7.8,0.9,15.6,1.5,23.3c0.6,8.1,0.3,16.8,2.3,24.8
	c-4.9,4.8-9.9,9.6-14.7,14.4c0-8.3-2.3-17.2-3.2-25.4c-1-8.8-1.7-17.7-2.7-26.5C119.3,93.6,124.9,90.1,130.6,86.7z M91.9,113.1
	c6.3-4.9,12.8-9.6,19.4-14.1c0.2,8.9,0.9,17.7,1.7,26.6c0.7,8.6,0.5,18.6,3.5,26.8c-10.4,10.4-20.7,20.9-30.7,31.6
	c-0.4-10.6-3-21.5-4.2-32c-1.1-9.4-1.9-18.9-2.7-28.4C83.3,120,87.7,116.4,91.9,113.1z M76.9,125.4c0.3,9.6,0.7,19.1,1.6,28.7
	c0.9,10.8,1.2,22.5,4.5,32.9c-3.4,3.6-6.8,7.2-10.1,10.8c-1.4-20.8-5.4-41.8-7-62.7C69.5,131.8,73.2,128.6,76.9,125.4z M63,137.8
	c0.6,21.2,1,43.9,6,64.3c-5.7,6.3-11.3,12.5-16.8,18.9l-0.9-5.4c-0.4-2.8-0.9-5.6-1.2-8.5c-0.9-6.4-1.6-12.7-2.3-19.1
	c-1-10.6-1.7-21.3-2.4-31.9C50.9,149.7,56.9,143.6,63,137.8z M43.3,158.3c-0.2,12.8,0.5,25.6,1.7,38.3c0.7,7.1,1.5,14.2,2.5,21.2
	c0.3,2.4,0.4,5,0.9,7.5c-4.3,4.9-8.5,9.9-12.8,14.9c-0.8-10.9-3.8-21.6-4.7-32.5c-0.9-10.7-0.2-21.4-0.9-32
	C34,169.7,38.5,163.9,43.3,158.3z M27.3,179.8c-1.2,9.2-0.6,18.9,0,28c0.8,10.9,1.5,23.6,5.6,33.7c0.2,0.4,0.5,0.7,0.8,0.8
	c-5.8,6.9-11.6,13.9-17.3,20.9C4.2,233.5,11.5,205.1,27.3,179.8z M137.9,131.5c0.1-7.6-1.4-15.7-2.2-23.1
	c-0.8-7.7-1.5-15.5-2.5-23.2c8.4-4.9,16.9-9.5,25.7-13.7c1,12.2,1.9,24.7,4.2,36.6C154.6,115.8,146.2,123.6,137.9,131.5z
	 M161.7,70.2c4.9-2.3,9.8-4.5,14.7-6.6l1.2,14.7c0.4,5.1,0.5,10.4,1.8,15.4c-4.1,3.5-8.1,7.1-12.2,10.7
	C166.2,93,163.9,81.4,161.7,70.2z M94.5,183.8c0.2,0.2,0.5,0.3,0.8,0.3c23.1,1.5,46,2.7,69,5.1c-1.7,2.4-3.3,4.7-5,7
	c-5,6.7-10.3,13.2-16,19.3c-0.2-0.1-0.3-0.1-0.5-0.1c-24.7-1.5-49.5-2.8-74.2-3.2c-0.2,0-0.3,0-0.5,0.1
	C76.8,202.7,85.5,193.2,94.5,183.8z M54.1,227.9c4.4-5,8.9-10,13.4-15c-0.3,0.7,0,1.6,0.8,1.7c23.4,2.5,46.9,4.2,70.4,5.7
	c-5.7,5.8-11.8,11.2-18.2,16.1c-21.4-4.2-44.2-5.4-65.9-6.6C54.9,229.2,54.7,228.5,54.1,227.9C54.2,228,54.2,227.9,54.1,227.9z
	 M23.7,263.6c9-10.8,18.1-21.5,27.3-32.1c0.5,0.4,1.1,0.5,1.6,0.4c0.1,0.6,0.5,1.2,1.3,1.3c20.2,2.5,40.6,5.8,60.9,7.5
	C88.5,259.3,57.5,269.6,23.7,263.6z"/>
<path class="st0" d="M-14.3,366c-10.5-1.8-20.8-4.3-31-7.9c-2.4-0.8-4,3.2-1.7,4.2c9.7,3.9,19.7,6.6,29.8,8.5
	c12.5,42.8,69.2,53.5,108.2,46.8c58.3-9.9,105.4-51,153.3-83.7c2.1-1.4,1.6-5.5-1.4-5.1c-29.8,4.1-58.4,5.1-87.7-0.6
	c-23.7-4.6-46.8-11.6-71-14.1C47.3,310.3-7.4,321.1-14.3,366z M-13.4,371.5c6.7,1.1,13.5,1.9,20.3,2.4c6.9,6,13.1,12.4,19,19.4
	c0.9,1.1,2.7-0.4,2-1.6c-4.4-6.3-9.4-12.1-14.9-17.5c10.4,0.5,20.8,0.3,31.3-0.3c9,8.9,18.6,17.3,28.9,24.7c0.9,0.6,1.9-0.8,1.2-1.5
	c-5-4.5-10.1-9-15-13.6c-2.1-1.9-8.6-6.4-11-9.8c13.4-0.8,26.7-2.2,39.9-3.7c6.1,5.2,12.3,10.2,18.9,14.7c0.9,0.6,2.1-0.9,1.2-1.6
	c-5.2-4.5-10.4-9-15.4-13.6c12.7-1.5,25.5-3.2,38.2-5.2c8,5.6,16.2,10.9,24.8,15.6c1.3,0.7,2.4-1.3,1.2-2.1
	c-7-4.7-13.9-9.4-20.8-14.3c9.3-1.5,18.6-3.3,27.8-5.2c0.1,0.2,0.3,0.4,0.6,0.5c4.4,2.1,8.4,4.2,13.3,5.4c1.4,0.3,1.9-1.7,0.6-2.1
	c-3.4-1.2-6.9-2.6-9.9-4.7c18.7-4.1,37.1-9.2,55.2-15.8c-35.7,25.5-71.2,52.8-113.1,65.9C66.9,421,8.7,415.4-13.4,371.5z M113.8,325
	c21.1,4.5,41.9,10.2,63.4,12.3c17.5,1.7,35,0.7,52.6-1.4c-18.6,6.2-37.4,11.2-56.4,15.4c1.3-1.6,2.6-3.2,3.6-4.9
	c1-1.7-1.2-3-2.5-1.9c-2.8,2.2-5.2,5.2-7.5,8.1c-10,2.1-20.1,4-30.2,5.7c7.6-6.5,15.4-13.7,20.4-22.1c0.9-1.6-1.1-2.8-2.3-1.7
	c-8.8,7.7-16.2,17.2-25.1,25c-11.5,1.8-23,3.4-34.5,4.7c-0.1,0-0.2,0-0.3,0c8.1-5.2,16.2-11.1,22.9-18c1.3-1.3-0.4-3.7-2-2.5
	c-9.6,7.3-18.8,14.9-28.9,21.4c-12.7,1.4-25.3,2.6-38,3.3c3.2-4.1,11.6-9.1,14.3-11.1c5.3-3.9,10.7-7.6,15.8-11.6
	c1.7-1.3,0.3-4-1.7-2.9C65,350.4,53.7,359.8,42.6,369c-9.5,0.4-19.1,0.4-28.5,0c9.5-6.1,19.4-12.1,27.6-19.5
	c1.5-1.3-0.4-3.2-1.9-2.4c-11.4,5.7-21.9,14.1-32.4,21.5c-5.5-0.4-11.1-1-16.5-1.8C5.8,312.5,71.1,315.9,113.8,325z"/>
<path class="st0" d="M1405.5,219.3c0.4,0.3,0.8,0.4,1.3,0.5c4.9,7.2,9.4,14.7,13.4,22.5c1.4,2.8,5.6,0.7,4.3-2.1
	c-3.4-7.3-7.3-14.3-11.5-21.1c0-0.1,0-0.3,0-0.4c-10.3-65.1-41.8-125.4-97.2-162.7c-51-34.5-115.7-44.5-175-29
	c-1.6,0.4-2.3,1.8-1.9,3.3c-1.1,0.2-1.4,1.8-0.2,2.3c0.4,0.2,0.8,0.4,1.2,0.5c19.9,50.5,53.8,93.9,98.7,124.7
	c22.5,15.5,47.5,27.7,73.7,35.5C1342.9,202.5,1378.5,200.5,1405.5,219.3z M1326.8,191.2c6.6-2,12.9-5.2,19.3-7.9
	c4.2-1.8,8.3-3.6,12.4-5.4c0.5-0.2,5.2-2.5,7.6-4.1c0.1,0.1,0.1,0.2,0.2,0.3c0.1,0.1,0.2,0.1,0.3,0.2c0.4,0.2,0.9,0.2,1.2,0
	c5.1,4.9,10.1,10,14.9,15.3c-6.7,2.5-14.1,4.9-20.4,8.3C1350.5,195.7,1338.5,194.1,1326.8,191.2z M1287.9,178.3
	c18.3-9,36.7-17.6,55.2-26.1c7.5,6.2,14.8,12.6,21.9,19.3c-4.1,0.4-9.5,3.7-12.3,4.8c-9.6,3.8-20.3,7-29.2,12.2
	c-0.6,0.3-0.9,0.9-0.9,1.5C1310.8,187,1299.1,183,1287.9,178.3z M1253.3,160.5c21.9-6.5,43.7-17,63.8-27.3c0.4-0.2,0.6-0.5,0.7-0.8
	c7.6,5.7,15.2,11.5,22.6,17.6c-18.8,7.2-37.4,15.5-55.3,24.8c-0.8,0.4-1.1,1.1-1.1,1.8C1273.5,171.9,1263.2,166.5,1253.3,160.5z
	 M1216,133c22.1-8.4,44.1-17.1,66.2-25.4c0.1,0,0.1-0.1,0.2-0.1c5.6,3.7,11.2,7.5,16.7,11.4c5.4,3.9,10.9,7.8,16.3,11.8
	c-22.1,9.3-45.1,17.1-67,26.8C1237.1,150.2,1226.2,142,1216,133z M1189.9,106.7c0.4,0.4,0.9,0.6,1.6,0.5c9.6-1.6,19.2-6.1,28.3-9.7
	c8.9-3.5,18.5-6.8,26.5-12.2c11.2,6.4,22.2,13.1,33.1,20.2c-22.5,7.6-45,15.4-67.2,24c0,0,0,0,0,0
	C1204.3,122.3,1196.9,114.7,1189.9,106.7z M1169.7,79.9c12.5-5.4,25.1-10.4,37.7-15.5c12.3,6.2,24.4,12.6,36.4,19.4
	c-8.3,2.3-16.2,6.2-24.2,9.2c-9.6,3.6-20,6.1-29.2,10.6c-1.2,0.6-1.2,1.8-0.7,2.7c-0.6-0.7-1.2-1.3-1.7-2
	C1181.4,96.6,1175.3,88.4,1169.7,79.9z M1154,52.7c3-0.8,6-2.3,8.9-3.2c2.9-0.8,6.3-1,9.3-2c10.6,4.9,21.2,9.9,31.6,15.1
	c-12.3,3.7-24.4,8.3-36,13.5c-0.2,0.1-0.2,0.2-0.4,0.3c-1.2-1.9-2.4-3.7-3.5-5.6C1160.4,64.9,1157.1,58.9,1154,52.7z M1166.3,44.8
	c-1.5,0.3-2.9,0.6-4.1,0.9c-3.1,0.6-7.3,1.3-10.3,3c-2.2-4-5.4-9.7-6.3-13.2C1152.5,38.6,1159.4,41.7,1166.3,44.8z M1193,24.8
	c-1.4,8-3,16.1-3.6,24.1c-14.2-6.2-28.7-11.8-43.4-16.6c5.3-7.3,35.4-7.2,42.8-7.5C1190.2,24.8,1191.6,24.8,1193,24.8z M1232.1,27.8
	c-2.1,4.2-2.4,11.4-3,14.8c-1.6,7.8-3.1,15.7-3.9,23.7c-10.5-5.5-21.1-10.7-31.9-15.5c1.4-8.5,1.8-17.3,2.4-25.9
	c10.2,0,20.5,0.6,30.6,2C1228.2,27.1,1230.2,27.4,1232.1,27.8z M1268.7,37.6c-1.8,8.3-3.4,16.7-5.1,25c-1.5,7.4-4.1,15.3-4.2,22.9
	c-9.9-6-19.9-11.7-30.2-17.2c2-13.3,2.9-27.1,5.5-40.1C1246.3,30.4,1257.7,33.5,1268.7,37.6z M1357.9,101.8
	c-0.8,8.7-1.4,17.4-2.4,26.1c-0.9,8-2.7,16.2-3.2,24.3c-14.5-12.3-29.7-23.8-44.6-34.5c-14.6-10.5-29.7-20.7-45.3-30.3
	c3-7.5,3.3-16.2,4.5-24.1c1.3-8.3,2.7-16.6,3.9-24.9c11,4.2,21.7,9.3,31.8,15.4c-2.3,17.6-6.5,34.7-9.2,52.2
	c-0.3,2.1,2.9,2.6,3.6,0.7c5.1-16.3,6.8-34.3,8.1-51.3c1.8,1.1,3.7,2.2,5.4,3.4c8.2,5.4,15.9,11.4,23.2,17.9c-2,5.3-2,13.1-2.7,17.7
	c-1.9,11.6-3.5,23.3-5.6,34.9c-0.5,2.6,3.9,3,4.2,0.3c1-9.1,2.2-18.1,3.4-27.2c0.5-3.9,1-7.8,1.5-11.6c0.3-2.6,0.6-5.2,0.9-7.8
	c0.3-1.4,0.4-2.8,0.5-4.3C1343.9,85.7,1351.2,93.5,1357.9,101.8z M1378.4,132.1c-0.9,14.1-1.5,28.4-1.5,42.5
	c-6.9-6.9-14.1-13.5-21.4-19.8c4.5-15.6,4.7-34.1,4.6-50.5c5.3,6.7,10.2,13.7,14.6,21C1375.9,127.6,1377.1,129.8,1378.4,132.1z
	 M1405.8,208.4c-7.8-10.8-16.5-21.1-25.9-30.7c0.7-13.9,0.8-27.9,0.6-41.8C1392.2,159,1398.3,183.7,1405.8,208.4z M1368.9,199
	c5.3-2.2,10.6-5,15.6-7.5c5,5.6,9.8,11.3,14.3,17.2C1389.4,204,1379.3,201.2,1368.9,199z"/>
<path class="st0" d="M-20.3,630c-11.5-7.2-22.9-14.6-34.2-22.2c-2.5-1.7-5.3,2-2.8,3.7c9.1,6.6,18.4,12.9,27.9,19.2c0,0,0,0.1,0,0.1
	c-10.7,11.8-2.4,47.1,0.9,58.7c4.1,14.1,10.5,27.5,19.2,39.4c10,13.7,22.8,24.4,28.5,40.9c1,2.7,5,0.9,4.1-1.8
	c-9.7-25-18.9-50.1-27.7-75.4c14.8,26.8,34.5,51,56.1,73c1.2,1.3,3.9,0.6,3.5-1.5c-4.1-19.3-10.4-37.8-18.6-55.3
	c3.1,4.4,6.3,8.8,9.6,13c15.7,20.3,32.9,40.1,56.9,50.6c1.9,0.8,3.8-1.3,3-3.1c-7.3-17.6-16.3-34.4-26.9-50.2
	c19.8,22.7,42.3,43.1,68.4,56.5c1.8,0.9,3.7-1.3,2.9-3c-4.8-9.8-10.2-19.4-16.2-28.5c17,15,36.1,27.4,56.6,37.2c1,0.5,2.1,0,2.8-0.8
	c2.1-2.4,2-5.5,0.5-8.9c11.6,8.1,29.9,20.1,39.1,15.5c0.8-0.4,1.5-1.1,1.5-2.1c0.1-5.7-5.2-12.1-11.5-17.9
	c12.8,6,26.3,10.5,40.1,13.7c1.8,0.4,3.1-1.8,2.4-3.3c-1.9-4.2-4.7-8.1-8.1-11.7c2.1,0.7,4.2,1.4,6.3,2c11.7,3.5,28.4,8.5,40.3,3.5
	c17-7.1-5.5-16.3-20.2-20.6c-0.2-0.2-0.4-0.3-0.7-0.4c-0.9-0.2-1.8-0.4-2.7-0.6c8.9-0.4,16.9-3.1,24.8-8.2c1-0.6,1.1-2.2,0.4-3.1
	c-9.8-11.4-26-10.7-40-11.4c-5.6-0.3-11.3-0.4-17-0.4c2.6-0.6,5.2-1.3,7.9-1.9c6.9-1.7,17.8-2,20.8-9.5c0.3-0.7,0.2-1.6-0.3-2.2
	c-8.9-10.8-35-7.5-47.1-7.1c-3.6,0.1-7.2,0.3-10.9,0.5c9.8-3.4,19.5-7.3,29.1-11.6c1.8-0.8,2-3.1,0.5-4.4c-10.9-9.6-42-4.9-55.3-3.2
	c-7.3,1-14.6,2.4-21.8,4.3c13.2-5.1,25.8-11.3,37.3-20c1.6-1.2,1-3.5-0.6-4.3c-12.2-5.5-28.7-2.5-43.2,0.7c4-2.1,7.7-4.8,11-8.3
	c0.9-1,0.6-2.9-0.5-3.6c-5.1-3.6-11.3-5.3-18-6c4.4-2.2,8.6-4.6,12.5-7.6c1.5-1.1,1.2-3.2,0-4.3c-11.2-9.9-35.8-7.5-53.8-5.3
	c10.5-3.8,19.9-9.2,22-17.5c0.2-0.9-0.4-1.7-1-2.3c-6.7-6-17.5-3.5-25.9-3c-2.2,0.1-4.4,0.4-6.6,0.5c4.3-1.7,8.7-3.4,13-5.2
	c1.4-0.6,2.3-2.5,1.6-4C106.3,576.2-5.4,621-20.3,630z M106.9,630.2c-10.5,3.8-21.3,6.7-32.1,9.2c-0.5,0.1-1,0.2-1.4,0.3
	c-2.4,0.5-4.9,1.1-7.3,1.7c-1.5,0.4-2.9,0.8-4.4,1.2c-16.3,4-33.9,8-49.5,6c-0.4-0.1-0.7,0.1-0.9,0.3c-2.1-1.2-4.2-2.4-6.2-3.6
	c11.9-4.6,23.3-9.8,35.1-14.3c13-3.1,25.8-6.7,38.5-10.8c13.1-2.5,26.4-4.2,39.6-4.9c10.1-3.5,13-2.3,8.8,3.5
	c-0.8,3.7-3.1,5.7-7,6.2C116.2,627.4,111.1,628.7,106.9,630.2z M20.2,654c-1.5-0.8-2.9-1.7-4.3-2.5c7.4,1,14.9,0.2,22.4-1.1
	c-5.8,2.3-12.1,4.3-14.2,3C22.7,652.5,21.1,653,20.2,654z M-5.1,639.3c3.6-0.5,7.3-1,10.9-1.6c-2.3,1.3-4.7,2.6-6.9,4.1
	C-2.4,640.9-3.7,640.1-5.1,639.3z M145.2,650c-10.5,0.7-21.2,2.8-29.8,3.8c-18.6,2.3-38.1,4-56,10.2c-1.2,0-2.5,0.1-3.7,0.1
	c-0.2,0-15-1-14.9-1c0.2-0.2,0.1-0.5-0.2-0.5c-0.7-0.1-1.4-0.3-2-0.4c-0.5-0.1-1.2,0.3-1.3,0.8c0,0.1-0.1,0.3-0.1,0.4
	c-2.4-1.3-4.8-2.6-7.2-3.9c0.7-0.2,1.3-0.4,2.1-0.7c14.5-4.5,28.4-10,43.2-13.3c14.1-3.1,28.3-5.3,42.7-6.3
	c11.3-0.8,34-4.7,45.9,1.3C158.2,644.4,151.8,647.5,145.2,650z M3.2,651c2,4.5,4.2,9,6.5,13.4C4.5,657.7-1.1,651.2-7,644.9
	C-3.6,647-0.2,649,3.2,651z M140.7,672.9c-2.3,0.8-4.6,1.6-6.8,2.4c-3,0.8-6,1.7-8.9,2.7c-2.8,0.9-5.5,2.1-8.2,3.3
	c-7.4,2.6-14.7,5.4-21.9,8.6c-0.8,0.2-1.6,0.4-2.4,0.5c-0.1,0-0.1,0-0.2,0.1c-5.9-2.6-11.7-5.3-17.5-8.1c-3.3-2.2-6.6-4.4-10-6.4
	c-1-0.6-2.1-0.4-2.8,0.2c-2.6-1.3-5.2-2.6-7.7-3.9c3.4-1.4,6.8-2.7,10.4-3.9c15.4-0.2,30.8-1.7,46-4.5c10-1.8,20.4-3.9,30.5-7
	c0,0,0.1,0,0.1,0c5.6-0.4,28.3-5.7,21.1,8C160.3,668.4,144.2,671.6,140.7,672.9z M131.2,701.7c-2,0.8-0.7,3.6,1.3,3
	c5.2-1.6,10.5-3.3,15.7-4.9c-5,2.2-10,4.7-14.7,7.5c-8.9-3.3-17.7-6.8-26.4-10.4c-2-0.8-3.9-1.7-5.8-2.5c12.2-2.9,24.5-11,36.2-14.2
	c10.7-2.9,21.5-5,32.4-6.8c9.7-1.6,22.4-5,32.6-2.8C180.8,685.7,155.6,692.1,131.2,701.7z M200.1,708.3c-12.4,1.8-24.7,4.8-35.7,9.7
	c-0.1,0-0.1,0.1-0.1,0.1c-7.9-2.6-15.7-5.3-23.5-8.2c15.7-7.3,31.4-13.4,48.8-16.3c11-1.8,22.1-2.6,33.2-2.3
	c5.1,0.1,13.1-0.5,18.9,1.1C228.3,699.1,214.4,704.2,200.1,708.3z M222.6,727.8c-5.8,0.6-11.6,1.3-17.3,2.4
	c-0.3,0.1-0.6,0.2-0.8,0.3c-10.9-3.1-21.7-6.4-32.4-9.8c24.3-5,47-10.5,72.5-9.9c5.8,0.1,14-0.7,19.5,1.2c16.8,5.9-5,7.8-10.6,9.3
	C243.3,723.9,232.9,725.6,222.6,727.8z M272.9,747.8c-18.6-4.2-37-8.8-55.3-13.7c15-1.1,30-2.2,45.2-1.7c6.7,0.2,19.5-1.3,25.8,1.7
	c2.4,2.9,4.9,5.8,7.3,8.7l-4.3,1.8c-4,2.9-12.9,2.6-17.5,2.6C273.4,747.1,273.1,747.4,272.9,747.8z M250,758.4
	c-8.6-6.8-19-12.5-28.5-17.3c19,4.6,38,8.5,57.1,11.5c7.8,1.6,17.9,3.7,19.2,10.6c1.4,7.6-5.2,5-11.5,4.6c-4.4-0.3-8.6-1.3-12.8-2.2
	C265.5,763.8,257.6,761.4,250,758.4z M201.8,749.4c-6.6-5.2-13.5-10.4-20.7-15.2c-2.4-2-4.8-4-7.2-6.1c-0.6-0.5-1.3-0.3-1.8,0.2
	c-1.2-0.7-2.3-1.5-3.5-2.2c12.8,4.2,25.7,7.9,38.7,11.4c-0.1,0.7,0.1,1.4,0.8,1.9c6.1,3.7,13.9,7.6,21.7,12c4.4,3.5,9.1,6.3,14,8.7
	c6.2,4.4,11.7,9.3,15.4,14.8C238.3,769.6,219.3,760.9,201.8,749.4z M44.5,674c2.4,3.5,4.9,7,7.5,10.5c-4.4-4.7-9-9.3-13.7-13.7
	C40.3,671.9,42.4,672.9,44.5,674z M197.8,767.6c-3.9-2.3-7.6-4.8-11.3-7.3c-6.4-7.1-14.4-13.6-17.2-16.5c-8-7.9-16.4-15.5-25.3-22.5
	c-1.6-1.8-3.2-3.6-4.8-5.4c3.2,1.2,6.3,2.3,9.5,3.4c13.7,10.3,28.9,18.5,42.8,28.6c7,5.1,13.9,10.5,20.3,16.4
	c4.1,3.7,8.1,7.6,11.9,11.7c3.2,3.4,8,5.4,2.8,5.6C218.8,781.8,204.1,771.4,197.8,767.6z M134.7,738.5c-5.3-4.7-10.3-9.7-15.1-14.9
	c-3-3.7-6.2-7.2-9.4-10.7c-3.4-4.1-6.7-8.2-9.9-12.5c4.7,2,9.5,4,14.3,6c10.6,7.1,21,14.4,30.9,22.4c9.3,11.6,20.4,21.9,32.3,30.8
	c0.2,0.2,0.3,0.3,0.5,0.5c2.2,2.5,6.8,6.2,8,9.3c2.5,6.5,0.9,3.5-3.7,2.1C165.6,766.5,147.5,749.9,134.7,738.5z M49.9,676.8
	c8.4,4.3,16.9,8.4,25.4,12.4c28.2,21.4,51.5,47,68,78.8C105.2,746.1,77.7,710.4,49.9,676.8z M8,653.9c3.2,1.9,6.4,3.7,9.6,5.5
	c35.3,29.2,63.3,64.1,81.8,106C57.8,744.1,29.5,694.1,8,653.9z M-17.8,653c-1.7-5.1-3.4-10.1-5-15.2c0.6-0.2,1.2-0.5,1.8-0.8
	c34.9,32.9,59.5,74.3,70.9,120.8C21,727-3.1,692.4-17.8,653z M-28.2,635.7c11.9,36.5,24.6,72.7,37.9,108.7
	c-8.4-10.8-18.1-20.8-24.5-33c-5.9-11.2-9.9-23.2-12.3-35.6C-28.9,665.9-32.3,647.2-28.2,635.7z M-13.8,634
	c35.8-14.9,74.1-32.6,113.1-32.9c7.7-0.1,14.2-1.6,5.7,3.4c-4.6,2.7-11.3,4.5-16.3,6.3c-3,1.1-5.9,2.1-8.9,3.2
	c-3.4,0.6-6.9,1.3-10.3,2c-16.1,3.5-33.5,8-49.4,14.7c-8.8,1.9-17.6,3.7-26.5,5.3c-0.9,0.2-1.3,0.9-1.3,1.6
	C-9.8,636.4-11.8,635.2-13.8,634z"/>
</svg>
