<?xml version="1.0" encoding="utf-8"?>
<!-- Generator: Adobe Illustrator 22.0.0, SVG Export Plug-In . SVG Version: 6.00 Build 0)  -->
<svg version="1.1" id="Layer_1" xmlns="http://www.w3.org/2000/svg" xmlns:xlink="http://www.w3.org/1999/xlink" x="0px" y="0px"
	 viewBox="0 0 800 1400" style="enable-background:new 0 0 800 1400;" xml:space="preserve">
<style type="text/css">
	.st0{fill:#F6C2AD;}
</style>
<path class="st0" d="M969.4,1083.6c7-10,1.2-16-9.5-18.5c-22.7-5.4-47.6-1.4-70,3.8c-21.3,5-41.8,13.6-58.9,27.5
	c-4.5,3.7-8.6,8-13.7,10.9c-5.1,2.9-11,4.1-16.6,6c-10.9,3.6-21.6,8-32.7,10.8c9.6-12.2,18.4-24.4,25.1-38.4
	c3.2-6.6,6.5-13.7,8.4-20.9c1.7-6.6,1.2-11.9,8.8-13.6c6.6-1.5,13.6-0.7,20.3-2.5c6.1-1.6,11.9-4.3,17.1-7.8
	c11.1-7.6,20.1-19,26.5-30.7c11.4-20.7,15.3-46.5,10.3-69.7c-5.5-25.5-24.2-48.3-44.7-63.6c-10.2-7.6-21.7-14.6-33.7-18.8
	c-7.1-2.5-14.7-3.4-21.1,1.3c-7.7,5.7-11.4,16.3-15.2,24.6c-5.2,11.4-9.7,23.1-13.3,35.1c-13.1,44.2-13.2,94,26.5,124.2
	c9.3,7.1,11.4,16.1,6.6,27.1c-5.2,11.8-13.7,24.2-22,34c-9.2,10.9-19.4,21-29.5,31.1c-9.4,9.5-18.4,19.9-29.4,27.6
	c4.8-30.3,4.9-60.6-5.8-89.8c-5.1-14-12.1-27.4-20.7-39.5c-7.6-10.7-17.1-23.3-28.3-30.5c-8.4-5.4-13.6,0.2-18.1,7.5
	c-7.9,12.8-13.7,27.4-17.7,41.8c-7.4,26.9-4.6,55.5,9.9,79.6c6.9,11.5,16.3,21.2,27.4,28.6c6.2,4.2,13,7.9,20.1,10.5
	c6.2,2.3,12.8,2.7,19.3,4c-0.2,2.2-5.1,5.4-6.8,7c-3,2.8-5.9,5.6-8.9,8.4c-5.6,5.2-11.1,10.4-16.7,15.6c-4.3,4-27.5,19.6-17.8,26
	c4.4,2.9,7.5-0.2,10.2-3.5c4.5-5.6,8.4-11.4,13.6-16.3c10.5-10,21.7-19.3,32.4-29c18.5-16.9,36.7-33.6,58.8-45.8
	c11-6,22.5-10.7,34.3-14.8c5.7-2,11.4-3.9,17.2-5.8c3.9-1.3,8.7-4.1,12.8-2.2c5.1,2.4,10,9.8,14.4,13.4c4,3.3,8.3,6.3,13.1,8.5
	c9.2,4.3,19.3,5.6,29.3,4.7c23.9-2.2,45.1-16.8,62.8-32.1C952.4,1101.6,962.7,1093.3,969.4,1083.6z M831.2,1011
	c-4.8,1.8-15,6.6-19.1,3.3c-4.1-3.2,1.1-24.9,2.3-30.9c0.8-1.4,2.2-2.6,4.4-3.7c4.4-2.3,8.9-4.3,13.1-7c8.7-5.4,16.5-11.9,23.9-19
	c7-6.7,12.9-14.9,20.3-21.2c8.9,15.7,10.2,44.4-4.4,56.7C859.5,999.6,845.6,1005.5,831.2,1011z M856.4,900.3
	c2.4-0.1,7.2,6.8,8.6,8.7c3.8,5,11.3,14.5,7.8,20.8c-4.1,7.4-12.3,14.4-18.3,20.3c-6.1,6-12.7,11.6-19.7,16.6
	c-5.3,3.8-13.5,10.9-20.2,10.6c0.1-8.3-2-20.2,0.7-28c1.4-4.1,5.9-6.3,9-9c3.3-2.9,6.4-6,9.3-9.3c6.2-6.9,11.4-14.6,16.3-22.5
	C851.2,906.4,853.4,900.4,856.4,900.3z M846.1,889c1.4,1.4,4,3.3,4.9,5.1c1.6,3.3,0.3,4.3-1.6,7.8c-2.8,5.2-5.9,10.3-9.3,15.1
	c-7.1,10.1-15.4,19.3-24.9,27.3c-3.5-28.2-9.4-54.6-17.5-81.9C815.6,863.3,833.9,877.1,846.1,889z M763.7,918.1
	c-0.6-9.8,6.6-21.5,10.3-30.2c4.2-9.8,9.2-22.1,19.3-27.2c11.2,31.5,17.7,64.7,17.1,98.2c-11.4-5.1-21.7-12-31.2-20.1
	C772.7,933.4,764.3,927.4,763.7,918.1z M754.9,949.7c1.1-8.5,3.1-16.9,6.2-24.9c6.4,6.6,12.6,14.4,20.2,19.8
	c7.6,5.3,15.9,9.6,23.6,14.7c6.5,4.4,5.5,9.3,4.6,16.4c-0.6,4.8-1.1,9.7-1.5,14.5c-0.2,2.6-0.1,6.3-0.8,8.8
	c-0.9,3.1,0.3,2.6-3.1,2.8c-8,0.4-16.8-6.7-23-10.9c-8-5.5-15.6-11.6-21.9-19C753,964.5,753.7,958.8,754.9,949.7z M754,971.3
	c14.8,12,28.6,25.2,46.1,32.9c7.1,3.1,4.3,8.1,2.9,14.8c-2,9.1-4.2,18.2-7.9,26.9C769.3,1036,748.9,998.5,754,971.3z M801.6,1045.7
	c1.3-5.5,2.6-11,4-16.4c0.3-1.2,0.6-2.3,0.9-3.2c2.7-3.5,5.7-6.2,9.9-7.9c0.5-0.2,0.9-0.3,1.4-0.5c1.1-0.2,2.1-0.6,3.2-0.9
	c2-0.5,4-1,6-1.7c0,0,0,0,0,0c18.2-4.8,35.3-12.9,49.8-25.6C867.8,1024.5,838.8,1049.6,801.6,1045.7z M707.5,1134.2
	c-1,10.5-1.2,20.2-5.7,29.7c-3.5-4.2-5.8-9.3-4.3-14.8C698.7,1144.7,703.6,1136.3,707.5,1134.2z M706.4,1123.3
	c-2.1,9.2-7.6,17.2-12.7,24.9c-2.4-4.5-6.7-9.9-7.9-15c-1.2-4.8,2-9.1,4-13.3c1.7-3.5,14.9-27.4,14.3-28.2
	C705.5,1101.9,708.8,1113.1,706.4,1123.3z M699.7,1090.5c-4,12.5-10.1,24.1-17.1,35.2c-3.5-6-6.5-12.2-9.1-18.6
	c-1.9-4.7-6-11.8-4.7-16.9c1.5-6.1,7.2-12.7,10.4-18c3.4-5.7,6.8-11.4,10.3-17.2C695.5,1064.3,703.2,1079.6,699.7,1090.5z
	 M685.1,1047.8c0.9,4-1.1,8.2-2.5,11.8c-3.7,9.6-8.9,18.7-15.6,26.6c-3.5-5.7-8.3-17.6-6.8-24.3c0.9-4,5.3-9,7.5-12.6
	c3-4.9,6.1-9.8,9.1-14.7C679.5,1038.6,684.1,1043.1,685.1,1047.8z M663.7,1018.8c2.6,2.9,7.8,7.2,8.6,11.1
	c1.6,7.8-8.5,21.1-13.6,26.1c-4-7.2-5.4-16.4-6.7-24.4c-1.2-7.5-3-16.7-1-24.1C655.8,1010.6,659.9,1014.6,663.7,1018.8z
	 M628.8,1038.8c-0.6-5.6,4.3-11.9,6.6-16.7c2.8-5.6,5.7-10.3,9.6-15.2c2.9,18,5.7,35.9,8.6,53.9
	C645.9,1057.8,629.9,1048.2,628.8,1038.8z M626.5,1043.6c8,7.2,16.5,13,25,19.4c7.3,5.4,8.2,16.9,10.6,25.2
	c-2.2-0.4-4.4-0.7-6.6-1.1c-4.9-1.6-9.7-3.1-14.4-5.8c-0.7-0.4-1.3-0.8-2-1.2c-0.4-0.3-0.8-0.6-1.3-0.9c-5.2-3.7-9.5-8.1-14.3-12.4
	c-0.3-0.6-0.7-1.2-1-1.8C620,1058.2,624.4,1050,626.5,1043.6z M621.5,1103.8c-1.6-6-2.5-12.1-2.6-18.3c-0.1-5.7,2-12.3,1.7-17.5
	c2,1.5,4,3.1,6,4.6c8.2,10,22.8,18.4,34.7,19.4c1.8,1.4,3.4,3.1,4.5,5.6c3,6.7,5.4,13.8,8.2,20.7c1.2,3,4.8,9.1,3.4,11.3
	c-1.3,2-6.2,2.6-8.3,2.9c-6.5,0.8-13.5-0.6-19.7-2.4c-6.3-1.9-14.4-4.7-19.5-9C624.9,1116.7,623,1109.8,621.5,1103.8z M659.2,1157.9
	c-5.7-2.6-10.2-7.8-14.4-12.3c-6.1-6.4-12.2-13-15.4-21.4c10.2,4.7,20.6,10,32,11.1c5.4,0.5,10.3-1.4,15.4-1.8
	c0.9,0.5,1.9,0.4,2.9,0.6c0.2,0,0.3,0.1,0.5,0.1c0.2,0.1,0.4,0.2,0.7,0.3c0.3,0.1,0.6,0.3,0.8,0.5l2.1,4.4c1.5,3.1,2.9,6.3,4.4,9.4
	C680.6,1155.4,669.6,1162.6,659.2,1157.9z M667.9,1163.4c3.8-1.8,7.7-3.6,11.5-5.3c2.4-1.1,7.2-4.6,9.8-4.5
	c3.6,0,9.5,13.4,11.7,17.3C689.3,1171.8,678.2,1169,667.9,1163.4z M958.2,1072.2c-8,3.6-15.9,7.1-24.3,10.9
	C936.9,1068.5,941.4,1066.2,958.2,1072.2z M913.6,1071.8c5.9-4.3,16.6-3.2,23.6-3.8c-4.1,6.1-6.8,14.4-12.9,18.7
	c-6.8,4.7-16.6,6.5-24.3,9.2C902.3,1088.2,906.9,1076.8,913.6,1071.8z M888.3,1076.9c4.7-4.8,13.6-4.8,19.8-5.8
	c-2,4-3.9,7.5-6.3,11.2c-2.5,3.8-3,8.4-5.6,12.1c-4.6,6.5-13.3,6.2-20.4,7.4C877.6,1093.6,882.3,1083,888.3,1076.9z M827.1,1107.4
	c16-14.6,34.8-25.2,55.8-30.6c-2.9,6.1-5.7,12.2-8.6,18.3c-2.8,5.8-3.9,8.2-10.3,9.6C852.1,1107.5,839.3,1108.5,827.1,1107.4z
	 M828.6,1112.1c5.6-0.2,13.9-2.5,18.4,1.5c5.1,4.7,8.9,13.1,12.8,18.9C847.4,1129.3,837.8,1120.3,828.6,1112.1z M892.6,1122.1
	l9.8,6.6c-8.7,5-21.6,8.8-31.7,6.5c-9.9-2.2-18.4-15.2-20.9-24.3c8.7-1,17.5-2,26.2-3c1.1,0.3,2.1,0.8,3,1.5
	c3.1,2.4,3.2,4.8,8.6,9.1c1.6,1.3,3.3,2.5,4.9,3.6 M891.8,1116.7c-2.3-1.9-8.6-7.6-6-11c0,0,0,0,0,0c0.1,0,0.1,0,0.2,0
	c5.1-1.6,10.2-3.7,15.2-5.4c4.6-1.5,9.6-4.1,14.6-4.4c5-1,8.7,6,19.5,9.4c0.5,0.2,0.9,0.4,1.4,0.7c-4.3,4.7-9.3,8.7-14.6,12.3
	c-3.6,2.4-9.8,7.4-14.1,8C902.8,1126.9,896.9,1122,891.8,1116.7z M945.2,1099.3c-6.4,5.7-18.1,1.1-22.9-5.6
	c14.8-6.6,29.7-13.2,44.5-19.8C963.4,1083.8,953.1,1092.3,945.2,1099.3z"/>
<path class="st0" d="M823,487.5c19.6,22.4,64,31.4,93.2,26.4c-4.3,3.4-8.6,6.8-13,10.1c-5.9,4.4-12,8.8-18,13c0,0-0.1-0.1-0.1-0.1
	c-17-11.7-39.9-19.1-59.6-24.8c-17.8-5.2-35.3-6.4-50.7,5.2c-1.8,1.4-2.3,4.5,0.1,5.7c31.7,15.4,65.8,22.7,100.9,20.5
	c-11,7.4-22.2,14.5-33.7,21.3c0,0-0.1,0.1-0.1,0.1c-0.1-0.1-0.3-0.1-0.5-0.1c0-1.3-0.7-2.5-2.3-3c-33.6-10.5-71.2-29.4-105.3-10.2
	c-1.9,1.1-2.1,4.5,0.1,5.4c31.2,13,64.7,18.9,98.1,13.6c-11.8,6.6-23.7,12.6-35.8,18.3c-15.5-6.6-31.6-11.6-48.1-14.7
	c-13.3-2.6-28.8-6.3-41,1.4c-2,1.3-1.9,4.2,0.1,5.3c21.8,12.4,46.7,18.3,71.4,15.9c-9.8,4.3-19.7,8.5-29.6,12.5
	c-7.3-8.9-24.7-13.4-34.9-16.1c-14.7-3.9-29.7-3.3-42.7,5c-2.2,1.4-1.8,4,0.1,5.4c16.7,11.9,38.2,14.6,58.6,13.4
	c-8.4,3.3-16.8,6.7-25.2,10.1c-0.4-1.2-1.4-2.1-2.9-2.1c0,0,0,0,0-0.1c-18.7,0.2-55.9,11.1-57.3,34.3c-0.1,2.1,2.1,3.3,3.9,2.9
	c7.1-1.6,56.7-18.8,54.4-30.9c8.8-1.9,17.5-4.3,26.2-6.9c-12.7,11.2-23.5,24.4-32.6,38.8c-1.4,2.2,1.1,5.3,3.5,4.4
	c23.2-8.2,42.1-25.9,49.4-49.8c0-0.1,0-0.2,0-0.3c11.8-4.3,23.5-9.2,35.1-14.5c-17.3,14.3-30.7,32.6-40,53.1c-1.1,2.5,1.6,5.9,4.2,4
	c13.8-10,27.7-20.8,38-34.5c5.8-7.7,13.6-19.3,12.9-29.8c12-5.9,23.7-12.2,35.2-18.8c-16.3,21.5-26.8,46.3-31.2,73.2
	c-0.5,3.1,2.8,4.8,5.1,2.8c23.7-20.4,40.4-50.9,39.9-82.7c0-0.5-0.2-0.8-0.5-1.1c7.1-4.3,14.2-8.6,21.1-13.1c1.2-0.8,3.2-2,5.6-3.6
	c-12.4,23.8-14.4,54.8-11.1,80.5c0.3,2.3,3.3,4.2,5.1,2c11.9-14.7,17.9-31.9,20.2-50.5c1.1-9.2,5.1-31-1.8-40.1
	c8.6-5.8,19.1-13,29.7-20.9c-6.6,25-6,51.3,0.7,76.3c0.7,2.4,4.5,3.1,5.6,0.6c12-26.7,15.9-58.4,6.2-86.5
	c24.6-19.2,45.4-39.2,37.8-47.7c-1.7-1.9-4.8,0.2-4.1,2.5c2.4,8.2-20.2,23.2-25.4,27.7c-5.4,4.6-10.8,9.2-16.4,13.6
	c0-1.1-0.4-2.2-1.5-3c-25.5-17.1-64.7-35.4-95.6-24.8C821.9,482.8,821.3,485.6,823,487.5z M783.3,519.6c28.7-15.1,65.6,9.4,94,20.1
	C844.6,539.9,813,533.5,783.3,519.6z M743.2,554c29.4-11.4,58.6,3.1,87.4,11.8C800.7,568.8,771.1,565.8,743.2,554z M715.9,578.1
	c12.2-3.7,28.1,1.3,39.6,4.1c10.4,2.5,20.5,5.8,30.5,9.6C761.4,593.7,737.7,589.5,715.9,578.1z M677.6,645.2
	c-8.2,4.3-16.7,7.2-25.6,9.4c3.6-8.2,15.4-14,22.4-17.1c7.9-3.5,15.9-5.1,24.3-6.1C694.6,636.8,680.7,643.6,677.6,645.2z
	 M679.1,600.9c20.2-9.2,44,0.3,62.7,11C720.1,611,698,612.7,679.1,600.9z M707.7,657.4c9.9-13.6,21.3-25.3,34.3-36.3
	c0.1-0.1,0.2-0.2,0.3-0.3c0,0,0,0,0,0C734.7,636.8,723.4,649.5,707.7,657.4z M755.8,647.3c9.8-17.5,22.7-32.1,38.5-45
	C790.1,619.7,771,635.9,755.8,647.3z M811.5,641.9c5.5-24.7,16.5-47,32.5-66.8C839.5,600.9,829.8,623.4,811.5,641.9z M882.8,589.2
	c-2.2,12.8-6.6,24.7-13.7,35.3c-1-12.6-0.7-25.2,1.5-37.8c2.5-14.2,8.3-26.7,13-40.2c0-0.1,0-0.1,0-0.1c0.1-0.1,0.2-0.1,0.3-0.2
	C888.6,557.2,884.5,579.6,882.8,589.2z M921.6,588.4c-4.8-24-3.2-47.8,3.6-71.5c0.4-0.3,0.9-0.7,1.3-1
	C930.7,540.9,930.2,564.8,921.6,588.4z M912.1,509.9c-27.1-1.9-60.1-3.7-80.5-23.1C858.9,481,888.4,496.6,912.1,509.9z"/>
<path class="st0" d="M88.6,340.4c21.4-24.5,37.1-53.2,52.3-81.7c17.2-32.2,34-64.6,51.2-96.8c0.3-0.5,0.4-1,0.3-1.5
	c0.1-0.5-0.1-1.1-0.5-1.5c-0.7-1.1-2.1-1.7-3.5-1.4c-31.4,6.1-61.9,16.1-90.8,29.7c-0.5-0.9-2.3-0.5-2.2,0.7c0,0.1,0,0.2,0,0.3
	c-28.8,13.8-55.9,31.1-80.5,51.6c-0.5-0.2-1.2,0-1.2,0.7c0,0.1,0,0.2,0,0.3c-2.5,2.1-5,4.3-7.5,6.5c-38.5,34.2-86.8,89.9-55.6,143.3
	c-10.8,13.4-21.4,27-31.7,40.6c-2,2.6,1.7,6.1,3.8,3.5c11.1-14.3,22.5-28.5,34-42.5c0.4,0.4,0.8,0.7,1.5,0.8
	C8.3,404.4,56.5,377.2,88.6,340.4z M104.7,308.5C104.7,308.5,104.7,308.5,104.7,308.5c-23.3-2.4-47-4-70.4-3.6
	c3.1-3.2,6.1-6.4,9.2-9.5c22.8,0.3,45.7,2.1,68.4,2.3C109.5,301.3,107.1,305,104.7,308.5z M114.7,293.4c-22-3.2-45.7-2.7-68-1.3
	c0.8-0.8,1.6-1.7,2.4-2.5c10.6-10.7,21.4-21.1,32.3-31.4c0.2,0.5,0.7,1,1.4,1c16.4,1.1,33,4.3,49.4,4.6
	C126.6,273.9,120.8,283.7,114.7,293.4z M146,238.5c-3.9,7.4-7.8,14.7-11.9,22c-0.1-0.1-0.2-0.1-0.4-0.2c-15.7-4.3-34-4.1-50.2-4.2
	c7.8-7.3,15.7-14.6,23.7-21.8c12.7,1.3,25.4,2.4,38.1,4.2C145.6,238.6,145.8,238.5,146,238.5z M148,234.6c-0.3-0.5-0.8-0.8-1.6-0.9
	c-11.9-1.3-24.3-2.1-36.3-1.9c6-5.4,12.1-10.8,18.1-16.1c4.7-0.3,9.3-0.3,14-0.1c4.9,0.3,9.8,1.3,14.7,1.6
	C154,223,151,228.8,148,234.6z M158.7,213.8c-8.1-2.4-17.9-2.1-26.8-1.2c5.1-4.5,10.3-8.9,15.4-13.4c3.2,0.6,6.5,0.9,9.7,1.2
	c2.6,0.3,5.4,0.7,8.1,0.6C163,205.3,160.8,209.5,158.7,213.8z M180.4,170.9c-4.5,8.6-8.9,17.4-13.3,26.1c-3.4-0.5-7.1-0.3-10.5-0.5
	c-1.9-0.1-3.8-0.3-5.7-0.5c1.2-1,2.3-2,3.4-3c1,0.5,2.4-0.1,2.4-1.6c0-0.2,0-0.3,0-0.5C164.7,184.2,172.6,177.6,180.4,170.9z
	 M181,165.5c-8.3,6.2-16.5,12.6-24.7,19c-0.1-1.2-0.2-2.4-0.2-3.5c0-3.1,0.3-6.1,0.8-9.1C164.9,169.5,172.9,167.3,181,165.5z
	 M153.2,173c-0.4,2.5-0.7,5-0.8,7.6c-0.1,2.2-0.1,4.7,0.1,7c-4.3,3.4-8.6,6.9-12.9,10.4c0.1-6.8-0.5-13.6-0.8-20.3
	C143.6,176,148.4,174.5,153.2,173z M136.5,178.5c-0.3,7.4-0.8,15-0.3,22.4c-5.5,4.6-10.9,9.2-16.4,13.8c-0.1-4.6-1-9.3-1.5-13.9
	c-0.6-4.9-1.2-9.8-1.8-14.8C123,183.4,129.7,180.9,136.5,178.5z M67.9,210.4c0.4,7.8,0.9,15.6,1.5,23.3c0.6,8.1,0.3,16.8,2.3,24.8
	c-4.9,4.8-9.9,9.6-14.7,14.4c0-8.3-2.3-17.2-3.2-25.4c-1-8.8-1.7-17.7-2.7-26.5C56.5,217.3,62.2,213.8,67.9,210.4z M29.2,236.8
	c6.3-4.9,12.8-9.6,19.4-14.1c0.2,8.9,0.9,17.7,1.7,26.6c0.7,8.6,0.5,18.6,3.5,26.8C43.4,286.4,33.1,297,23,307.7
	c-0.4-10.6-3-21.5-4.2-32c-1.1-9.4-1.9-18.9-2.7-28.4C20.6,243.7,24.9,240.1,29.2,236.8z M14.1,249.1c0.3,9.6,0.7,19.1,1.6,28.7
	c0.9,10.8,1.2,22.5,4.5,32.9c-3.4,3.6-6.8,7.2-10.1,10.8c-1.4-20.8-5.4-41.8-7-62.7C6.7,255.5,10.4,252.3,14.1,249.1z M0.2,261.5
	c0.6,21.2,1,43.9,6,64.3c-5.7,6.3-11.3,12.5-16.8,18.9l-0.9-5.4c-0.4-2.8-0.9-5.6-1.2-8.5c-0.9-6.4-1.6-12.7-2.3-19.1
	c-1-10.6-1.7-21.3-2.4-31.9C-11.8,273.4-5.9,267.3,0.2,261.5z M-19.4,282c-0.2,12.8,0.5,25.6,1.7,38.3c0.7,7.1,1.5,14.2,2.5,21.2
	c0.3,2.4,0.4,5,0.9,7.5C-18.7,354-23,359-27.2,364c-0.8-10.9-3.8-21.6-4.7-32.5c-0.9-10.7-0.2-21.4-0.9-32
	C-28.7,293.4-24.2,287.6-19.4,282z M-35.4,303.5c-1.2,9.2-0.6,18.9,0,28c0.8,10.9,1.5,23.6,5.6,33.7c0.2,0.4,0.5,0.7,0.8,0.8
	C-34.8,373-40.6,380-46.3,387C-58.6,357.2-51.3,328.8-35.4,303.5z M75.2,255.2c0.1-7.6-1.4-15.7-2.2-23.1
	c-0.8-7.7-1.5-15.5-2.5-23.2c8.4-4.9,16.9-9.5,25.7-13.7c1,12.2,1.9,24.7,4.2,36.6C91.9,239.5,83.5,247.3,75.2,255.2z M99,193.9
	c4.9-2.3,9.8-4.5,14.7-6.6L115,202c0.4,5.1,0.5,10.4,1.8,15.4c-4.1,3.5-8.1,7.1-12.2,10.7C103.5,216.7,101.1,205.1,99,193.9z
	 M31.7,307.5c0.2,0.2,0.5,0.3,0.8,0.3c23.1,1.5,46,2.7,69,5.1c-1.7,2.4-3.3,4.7-5,7c-5,6.7-10.3,13.2-16,19.3
	c-0.2-0.1-0.3-0.1-0.5-0.1c-24.7-1.5-49.5-2.8-74.2-3.2c-0.2,0-0.3,0-0.5,0.1C14.1,326.4,22.8,316.9,31.7,307.5z M-8.6,351.6
	c4.4-5,8.9-10,13.4-15c-0.3,0.7,0,1.6,0.8,1.7c23.4,2.5,46.9,4.2,70.4,5.7c-5.7,5.8-11.8,11.2-18.2,16.1
	c-21.4-4.2-44.2-5.4-65.9-6.6C-7.9,352.9-8.1,352.2-8.6,351.6C-8.6,351.7-8.6,351.6-8.6,351.6z M-39.1,387.3
	c9-10.8,18.1-21.5,27.3-32.1c0.5,0.4,1.1,0.5,1.6,0.4c0.1,0.6,0.5,1.2,1.3,1.3c20.2,2.5,40.6,5.8,60.9,7.5
	C25.8,383-5.3,393.3-39.1,387.3z"/>
<path class="st0" d="M-77.1,489.7c-10.5-1.8-20.8-4.3-31-7.9c-2.4-0.8-4,3.2-1.7,4.2c9.7,3.9,19.7,6.6,29.8,8.5
	c12.5,42.8,69.2,53.5,108.2,46.8c58.3-9.9,105.4-51,153.3-83.7c2.1-1.4,1.6-5.5-1.4-5.1c-29.8,4.1-58.4,5.1-87.7-0.6
	c-23.7-4.6-46.8-11.6-71-14.1C-15.4,433.9-70.1,444.8-77.1,489.7z M-76.1,495.2c6.7,1.1,13.5,1.9,20.3,2.4c6.9,6,13.1,12.4,19,19.4
	c0.9,1.1,2.7-0.4,2-1.6c-4.4-6.3-9.4-12.1-14.9-17.5c10.4,0.5,20.8,0.3,31.3-0.3c9,8.9,18.6,17.3,28.9,24.7c0.9,0.6,1.9-0.8,1.2-1.5
	c-5-4.5-10.1-9-15-13.6c-2.1-1.9-8.6-6.4-11-9.8c13.4-0.8,26.7-2.2,39.9-3.7c6.1,5.2,12.3,10.2,18.9,14.7c0.9,0.6,2.1-0.9,1.2-1.6
	c-5.2-4.5-10.4-9-15.4-13.6c12.7-1.5,25.5-3.2,38.2-5.2c8,5.6,16.2,10.9,24.8,15.6c1.3,0.7,2.4-1.3,1.2-2.1
	c-7-4.7-13.9-9.4-20.8-14.3c9.3-1.5,18.6-3.3,27.8-5.2c0.1,0.2,0.3,0.4,0.6,0.5c4.4,2.1,8.4,4.2,13.3,5.4c1.4,0.3,1.9-1.7,0.6-2.1
	c-3.4-1.2-6.9-2.6-9.9-4.7c18.7-4.1,37.1-9.2,55.2-15.8C125.6,490.7,90.1,518,48.2,531C4.2,544.7-54.1,539.1-76.1,495.2z
	 M51.1,448.7c21.1,4.5,41.9,10.2,63.4,12.3c17.5,1.7,35,0.7,52.6-1.4c-18.6,6.2-37.4,11.2-56.4,15.4c1.3-1.6,2.6-3.2,3.6-4.9
	c1-1.7-1.2-3-2.5-1.9c-2.8,2.2-5.2,5.2-7.5,8.1c-10,2.1-20.1,4-30.2,5.7c7.6-6.5,15.4-13.7,20.4-22.1c0.9-1.6-1.1-2.8-2.3-1.7
	c-8.8,7.7-16.2,17.2-25.1,25c-11.5,1.8-23,3.4-34.5,4.7c-0.1,0-0.2,0-0.3,0c8.1-5.2,16.2-11.1,22.9-18c1.3-1.3-0.4-3.7-2-2.5
	c-9.6,7.3-18.8,14.9-28.9,21.4c-12.7,1.4-25.3,2.6-38,3.3c3.2-4.1,11.6-9.1,14.3-11.1c5.3-3.9,10.7-7.6,15.8-11.6
	c1.7-1.3,0.3-4-1.7-2.9c-12.3,7.3-23.7,16.7-34.7,25.9c-9.5,0.4-19.1,0.4-28.5,0c9.5-6.1,19.4-12.1,27.6-19.5
	c1.5-1.3-0.4-3.2-1.9-2.4c-11.4,5.7-21.9,14.1-32.4,21.5c-5.5-0.4-11.1-1-16.5-1.8C-57,436.2,8.3,439.6,51.1,448.7z"/>
<path class="st0" d="M857.6,405c0.4,0.3,0.8,0.4,1.3,0.5c4.9,7.2,9.4,14.7,13.4,22.5c1.4,2.8,5.6,0.7,4.3-2.1
	c-3.4-7.3-7.3-14.3-11.5-21.1c0-0.1,0-0.3,0-0.4c-10.3-65.1-41.8-125.4-97.2-162.7c-51-34.5-115.7-44.5-175-29
	c-1.6,0.4-2.3,1.8-1.9,3.3c-1.1,0.2-1.4,1.8-0.2,2.3c0.4,0.2,0.8,0.4,1.2,0.5c19.9,50.5,53.8,93.9,98.7,124.7
	c22.5,15.5,47.5,27.7,73.7,35.5C795.1,388.2,830.7,386.2,857.6,405z M778.9,377c6.6-2,12.9-5.2,19.3-7.9c4.2-1.8,8.3-3.6,12.4-5.4
	c0.5-0.2,5.2-2.5,7.6-4.1c0.1,0.1,0.1,0.2,0.2,0.3c0.1,0.1,0.2,0.1,0.3,0.2c0.4,0.2,0.9,0.2,1.2,0c5.1,4.9,10.1,10,14.9,15.3
	c-6.7,2.5-14.1,4.9-20.4,8.3C802.6,381.4,790.6,379.8,778.9,377z M740,364c18.3-9,36.7-17.6,55.2-26.1c7.5,6.2,14.8,12.6,21.9,19.3
	c-4.1,0.4-9.5,3.7-12.3,4.8c-9.6,3.8-20.3,7-29.2,12.2c-0.6,0.3-0.9,0.9-0.9,1.5C762.9,372.7,751.3,368.8,740,364z M705.5,346.2
	c21.9-6.5,43.7-17,63.8-27.3c0.4-0.2,0.6-0.5,0.7-0.8c7.6,5.7,15.2,11.5,22.6,17.6c-18.8,7.2-37.4,15.5-55.3,24.8
	c-0.8,0.4-1.1,1.1-1.1,1.8C725.6,357.6,715.3,352.3,705.5,346.2z M668.2,318.7c22.1-8.4,44.1-17.1,66.2-25.4c0.1,0,0.1-0.1,0.2-0.1
	c5.6,3.7,11.2,7.5,16.7,11.4c5.4,3.9,10.9,7.8,16.3,11.8c-22.1,9.3-45.1,17.1-67,26.8C689.2,335.9,678.4,327.7,668.2,318.7z
	 M642.1,292.4c0.4,0.4,0.9,0.6,1.6,0.5c9.6-1.6,19.2-6.1,28.3-9.7c8.9-3.5,18.5-6.8,26.5-12.2c11.2,6.4,22.2,13.1,33.1,20.2
	c-22.5,7.6-45,15.4-67.2,24c0,0,0,0,0,0C656.4,308.1,649,300.4,642.1,292.4z M621.8,265.7c12.5-5.4,25.1-10.4,37.7-15.5
	c12.3,6.2,24.4,12.6,36.4,19.4c-8.3,2.3-16.2,6.2-24.2,9.2c-9.6,3.6-20,6.1-29.2,10.6c-1.2,0.6-1.2,1.8-0.7,2.7
	c-0.6-0.7-1.2-1.3-1.7-2C633.5,282.3,627.4,274.2,621.8,265.7z M606.2,238.4c3-0.8,6-2.3,8.9-3.2c2.9-0.8,6.3-1,9.3-2
	c10.6,4.9,21.2,9.9,31.6,15.1c-12.3,3.7-24.4,8.3-36,13.5c-0.2,0.1-0.2,0.2-0.4,0.3c-1.2-1.9-2.4-3.7-3.5-5.6
	C612.5,250.7,609.2,244.6,606.2,238.4z M618.4,230.5c-1.5,0.3-2.9,0.6-4.1,0.9c-3.1,0.6-7.3,1.3-10.3,3c-2.2-4-5.4-9.7-6.3-13.2
	C604.6,224.3,611.5,227.4,618.4,230.5z M645.2,210.5c-1.4,8-3,16.1-3.6,24.1c-14.2-6.2-28.7-11.8-43.4-16.6
	c5.3-7.3,35.4-7.2,42.8-7.5C642.3,210.5,643.7,210.5,645.2,210.5z M684.3,213.5c-2.1,4.2-2.4,11.4-3,14.8
	c-1.6,7.8-3.1,15.7-3.9,23.7c-10.5-5.5-21.1-10.7-31.9-15.5c1.4-8.5,1.8-17.3,2.4-25.9c10.2,0,20.5,0.6,30.6,2
	C680.3,212.8,682.3,213.2,684.3,213.5z M720.8,223.3c-1.8,8.3-3.4,16.7-5.1,25c-1.5,7.4-4.1,15.3-4.2,22.9
	c-9.9-6-19.9-11.7-30.2-17.2c2-13.3,2.9-27.1,5.5-40.1C698.4,216.1,709.8,219.2,720.8,223.3z M810.1,287.5
	c-0.8,8.7-1.4,17.4-2.4,26.1c-0.9,8-2.7,16.2-3.2,24.3c-14.5-12.3-29.7-23.8-44.6-34.5c-14.6-10.5-29.7-20.7-45.3-30.3
	c3-7.5,3.3-16.2,4.5-24.1c1.3-8.3,2.7-16.6,3.9-24.9c11,4.2,21.7,9.3,31.8,15.4c-2.3,17.6-6.5,34.7-9.2,52.2
	c-0.3,2.1,2.9,2.6,3.6,0.7c5.1-16.3,6.8-34.3,8.1-51.3c1.8,1.1,3.7,2.2,5.4,3.4c8.2,5.4,15.9,11.4,23.2,17.9c-2,5.3-2,13.1-2.7,17.7
	c-1.9,11.6-3.5,23.3-5.6,34.9c-0.5,2.6,3.9,3,4.2,0.3c1-9.1,2.2-18.1,3.4-27.2c0.5-3.9,1-7.8,1.5-11.6c0.3-2.6,0.6-5.2,0.9-7.8
	c0.3-1.4,0.4-2.8,0.5-4.3C796,271.5,803.3,279.3,810.1,287.5z M830.5,317.8c-0.9,14.1-1.5,28.4-1.5,42.5
	c-6.9-6.9-14.1-13.5-21.4-19.8c4.5-15.6,4.7-34.1,4.6-50.5c5.3,6.7,10.2,13.7,14.6,21C828.1,313.3,829.3,315.6,830.5,317.8z
	 M857.9,394.1c-7.8-10.8-16.5-21.1-25.9-30.7c0.7-13.9,0.8-27.9,0.6-41.8C844.3,344.7,850.4,369.4,857.9,394.1z M821.1,384.8
	c5.3-2.2,10.6-5,15.6-7.5c5,5.6,9.8,11.3,14.3,17.2C841.5,389.7,831.4,386.9,821.1,384.8z"/>
<path class="st0" d="M-57.1,986.2c-11.5-7.2-22.9-14.6-34.2-22.2c-2.5-1.7-5.3,2-2.8,3.7c9.1,6.6,18.4,12.9,27.9,19.2
	c0,0,0,0.1,0,0.1c-10.7,11.8-2.4,47.1,0.9,58.7c4.1,14.1,10.5,27.5,19.2,39.4c10,13.7,22.8,24.4,28.5,40.9c1,2.7,5,0.9,4.1-1.8
	c-9.7-25-18.9-50.1-27.7-75.4c14.8,26.8,34.5,51,56.1,73c1.2,1.3,3.9,0.6,3.5-1.5c-4.1-19.3-10.4-37.8-18.6-55.3
	c3.1,4.4,6.3,8.8,9.6,13c15.7,20.3,32.9,40.1,56.9,50.6c1.9,0.8,3.8-1.3,3-3.1c-7.3-17.6-16.3-34.4-26.9-50.2
	c19.8,22.7,42.3,43.1,68.4,56.5c1.8,0.9,3.7-1.3,2.9-3c-4.8-9.8-10.2-19.4-16.2-28.5c17,15,36.1,27.4,56.6,37.2c1,0.5,2.1,0,2.8-0.8
	c2.1-2.4,2-5.5,0.5-8.9c11.6,8.1,29.9,20.1,39.1,15.5c0.8-0.4,1.5-1.1,1.5-2.1c0.1-5.7-5.2-12.1-11.5-17.9
	c12.8,6,26.3,10.5,40.1,13.7c1.8,0.4,3.1-1.8,2.4-3.3c-1.9-4.2-4.7-8.1-8.1-11.7c2.1,0.7,4.2,1.4,6.3,2c11.7,3.5,28.4,8.5,40.3,3.5
	c17-7.1-5.5-16.3-20.2-20.6c-0.2-0.2-0.4-0.3-0.7-0.4c-0.9-0.2-1.8-0.4-2.7-0.6c8.9-0.4,16.9-3.1,24.8-8.2c1-0.6,1.1-2.2,0.4-3.1
	c-9.8-11.4-26-10.7-40-11.4c-5.6-0.3-11.3-0.4-17-0.4c2.6-0.6,5.2-1.3,7.9-1.9c6.9-1.7,17.8-2,20.8-9.5c0.3-0.7,0.2-1.6-0.3-2.2
	c-8.9-10.8-35-7.5-47.1-7.1c-3.6,0.1-7.2,0.3-10.9,0.5c9.8-3.4,19.5-7.3,29.1-11.6c1.8-0.8,2-3.1,0.5-4.4c-10.9-9.6-42-4.9-55.3-3.2
	c-7.3,1-14.6,2.4-21.8,4.3c13.2-5.1,25.8-11.3,37.3-20c1.6-1.2,1-3.5-0.6-4.3c-12.2-5.5-28.7-2.5-43.2,0.7c4-2.1,7.7-4.8,11-8.3
	c0.9-1,0.6-2.9-0.5-3.6c-5.1-3.6-11.3-5.3-18-6c4.4-2.2,8.6-4.6,12.5-7.6c1.5-1.1,1.2-3.2,0-4.3c-11.2-9.9-35.8-7.5-53.8-5.3
	c10.5-3.8,19.9-9.2,22-17.5c0.2-0.9-0.4-1.7-1-2.3c-6.7-6-17.5-3.5-25.9-3c-2.2,0.1-4.4,0.4-6.6,0.5c4.3-1.7,8.7-3.4,13-5.2
	c1.4-0.6,2.3-2.5,1.6-4C69.4,932.4-42.2,977.2-57.1,986.2z M70,986.4c-10.5,3.8-21.3,6.7-32.1,9.2c-0.5,0.1-1,0.2-1.4,0.3
	c-2.4,0.5-4.9,1.1-7.3,1.7c-1.5,0.4-2.9,0.8-4.4,1.2c-16.3,4-33.9,8-49.5,6c-0.4-0.1-0.7,0.1-0.9,0.3c-2.1-1.2-4.2-2.4-6.2-3.6
	c11.9-4.6,23.3-9.8,35.1-14.3c13-3.1,25.8-6.7,38.5-10.8c13.1-2.5,26.4-4.2,39.6-4.9c10.1-3.5,13-2.3,8.8,3.5
	c-0.8,3.7-3.1,5.7-7,6.2C79.3,983.6,74.2,984.9,70,986.4z M-16.7,1010.2c-1.5-0.8-2.9-1.7-4.3-2.5c7.4,1,14.9,0.2,22.4-1.1
	c-5.8,2.3-12.1,4.3-14.2,3C-14.1,1008.7-15.8,1009.2-16.7,1010.2z M-41.9,995.5c3.6-0.5,7.3-1,10.9-1.6c-2.3,1.3-4.7,2.6-6.9,4.1
	C-39.2,997.1-40.6,996.3-41.9,995.5z M108.3,1006.2c-10.5,0.7-21.2,2.8-29.8,3.8c-18.6,2.3-38.1,4-56,10.2c-1.2,0-2.5,0.1-3.7,0.1
	c-0.2,0-15-1-14.9-1c0.2-0.2,0.1-0.5-0.2-0.5c-0.7-0.1-1.4-0.3-2-0.4c-0.5-0.1-1.2,0.3-1.3,0.8c0,0.1-0.1,0.3-0.1,0.4
	c-2.4-1.3-4.8-2.6-7.2-3.9c0.7-0.2,1.3-0.4,2.1-0.7c14.5-4.5,28.4-10,43.2-13.3c14.1-3.1,28.3-5.3,42.7-6.3
	c11.3-0.8,34-4.7,45.9,1.3C121.4,1000.6,115,1003.7,108.3,1006.2z M-33.7,1007.2c2,4.5,4.2,9,6.5,13.4c-5.2-6.7-10.7-13.2-16.6-19.4
	C-40.5,1003.2-37.1,1005.2-33.7,1007.2z M103.8,1029.1c-2.3,0.8-4.6,1.6-6.8,2.4c-3,0.8-6,1.7-8.9,2.7c-2.8,0.9-5.5,2.1-8.2,3.3
	c-7.4,2.6-14.7,5.4-21.9,8.6c-0.8,0.2-1.6,0.4-2.4,0.5c-0.1,0-0.1,0-0.2,0.1c-5.9-2.6-11.7-5.3-17.5-8.1c-3.3-2.2-6.6-4.4-10-6.4
	c-1-0.6-2.1-0.4-2.8,0.2c-2.6-1.3-5.2-2.6-7.7-3.9c3.4-1.4,6.8-2.7,10.4-3.9c15.4-0.2,30.8-1.7,46-4.5c10-1.8,20.4-3.9,30.5-7
	c0,0,0.1,0,0.1,0c5.6-0.4,28.3-5.7,21.1,8C123.5,1024.6,107.4,1027.8,103.8,1029.1z M94.3,1057.9c-2,0.8-0.7,3.6,1.3,3
	c5.2-1.6,10.5-3.3,15.7-4.9c-5,2.2-10,4.7-14.7,7.5c-8.9-3.3-17.7-6.8-26.4-10.4c-2-0.8-3.9-1.7-5.8-2.5c12.2-2.9,24.5-11,36.2-14.2
	c10.7-2.9,21.5-5,32.4-6.8c9.7-1.6,22.4-5,32.6-2.8C144,1041.9,118.8,1048.3,94.3,1057.9z M163.3,1064.5
	c-12.4,1.8-24.7,4.8-35.7,9.7c-0.1,0-0.1,0.1-0.1,0.1c-7.9-2.6-15.7-5.3-23.5-8.2c15.7-7.3,31.4-13.4,48.8-16.3
	c11-1.8,22.1-2.6,33.2-2.3c5.1,0.1,13.1-0.5,18.9,1.1C191.4,1055.3,177.5,1060.4,163.3,1064.5z M185.8,1084
	c-5.8,0.6-11.6,1.3-17.3,2.4c-0.3,0.1-0.6,0.2-0.8,0.3c-10.9-3.1-21.7-6.4-32.4-9.8c24.3-5,47-10.5,72.5-9.9
	c5.8,0.1,14-0.7,19.5,1.2c16.8,5.9-5,7.8-10.6,9.3C206.4,1080.1,196,1081.8,185.8,1084z M236,1104c-18.6-4.2-37-8.8-55.3-13.7
	c15-1.1,30-2.2,45.2-1.7c6.7,0.2,19.5-1.3,25.8,1.7c2.4,2.9,4.9,5.8,7.3,8.7l-4.3,1.8c-4,2.9-12.9,2.6-17.5,2.6
	C236.6,1103.3,236.2,1103.6,236,1104z M213.2,1114.6c-8.6-6.8-19-12.5-28.5-17.3c19,4.6,38,8.5,57.1,11.5
	c7.8,1.6,17.9,3.7,19.2,10.6c1.4,7.6-5.2,5-11.5,4.6c-4.4-0.3-8.6-1.3-12.8-2.2C228.6,1120,220.8,1117.6,213.2,1114.6z
	 M164.9,1105.6c-6.6-5.2-13.5-10.4-20.7-15.2c-2.4-2-4.8-4-7.2-6.1c-0.6-0.5-1.3-0.3-1.8,0.2c-1.2-0.7-2.3-1.5-3.5-2.2
	c12.8,4.2,25.7,7.9,38.7,11.4c-0.1,0.7,0.1,1.4,0.8,1.9c6.1,3.7,13.9,7.6,21.7,12c4.4,3.5,9.1,6.3,14,8.7
	c6.2,4.4,11.7,9.3,15.4,14.8C201.4,1125.8,182.5,1117.1,164.9,1105.6z M7.7,1030.2c2.4,3.5,4.9,7,7.5,10.5c-4.4-4.7-9-9.3-13.7-13.7
	C3.5,1028.1,5.6,1029.1,7.7,1030.2z M161,1123.8c-3.9-2.3-7.6-4.8-11.3-7.3c-6.4-7.1-14.4-13.6-17.2-16.5
	c-8-7.9-16.4-15.5-25.3-22.5c-1.6-1.8-3.2-3.6-4.8-5.4c3.2,1.2,6.3,2.3,9.5,3.4c13.7,10.3,28.9,18.5,42.8,28.6
	c7,5.1,13.9,10.5,20.3,16.4c4.1,3.7,8.1,7.6,11.9,11.7c3.2,3.4,8,5.4,2.8,5.6C181.9,1138,167.2,1127.6,161,1123.8z M97.8,1094.7
	c-5.3-4.7-10.3-9.7-15.1-14.9c-3-3.7-6.2-7.2-9.4-10.7c-3.4-4.1-6.7-8.2-9.9-12.5c4.7,2,9.5,4,14.3,6c10.6,7.1,21,14.4,30.9,22.4
	c9.3,11.6,20.4,21.9,32.3,30.8c0.2,0.2,0.3,0.3,0.5,0.5c2.2,2.5,6.8,6.2,8,9.3c2.5,6.5,0.9,3.5-3.7,2.1
	C128.8,1122.7,110.6,1106.1,97.8,1094.7z M13.1,1033c8.4,4.3,16.9,8.4,25.4,12.4c28.2,21.4,51.5,47,68,78.8
	C68.3,1102.3,40.9,1066.6,13.1,1033z M-28.8,1010.1c3.2,1.9,6.4,3.7,9.6,5.5c35.3,29.2,63.3,64.1,81.8,106
	C21,1100.3-7.3,1050.3-28.8,1010.1z M-54.7,1009.2c-1.7-5.1-3.4-10.1-5-15.2c0.6-0.2,1.2-0.5,1.8-0.8C-23,1026.1,1.6,1067.5,13,1114
	C-15.9,1083.2-40,1048.6-54.7,1009.2z M-65,991.9c11.9,36.5,24.6,72.7,37.9,108.7c-8.4-10.8-18.1-20.8-24.5-33
	c-5.9-11.2-9.9-23.2-12.3-35.6C-65.7,1022.1-69.1,1003.4-65,991.9z M-50.6,990.2c35.8-14.9,74.1-32.6,113.1-32.9
	c7.7-0.1,14.2-1.6,5.7,3.4c-4.6,2.7-11.3,4.5-16.3,6.3c-3,1.1-5.9,2.1-8.9,3.2c-3.4,0.6-6.9,1.3-10.3,2c-16.1,3.5-33.5,8-49.4,14.7
	c-8.8,1.9-17.6,3.7-26.5,5.3c-0.9,0.2-1.3,0.9-1.3,1.6C-46.6,992.6-48.6,991.4-50.6,990.2z"/>
</svg>
