<?xml version="1.0" encoding="utf-8"?>
<!-- Generator: Adobe Illustrator 22.0.0, SVG Export Plug-In . SVG Version: 6.00 Build 0)  -->
<svg version="1.1" id="Layer_1" xmlns="http://www.w3.org/2000/svg" xmlns:xlink="http://www.w3.org/1999/xlink" x="0px" y="0px"
	 viewBox="0 0 400 400" style="enable-background:new 0 0 400 400;" xml:space="preserve">
<style type="text/css">
	.st0{fill:#ECF1FA;}
</style>
<path class="st0" d="M15.9,348.3c7-11.3,24.3-10.1,34.9-5.7c14.5,6.1,26.7,19,37.2,31.3c1.5-11.1,3.7-22.1,6.3-32.9
	c-0.4-0.7-0.6-1.4-0.7-2.3c-1.4-18.1-23.3-35.2-36.9-45.3c-13.1-9.7-27.4-16.4-42.2-22.9c-10.3-4.5-24.8-10.5-29.6-21.7
	c-4.3-9.9,2.6-16.7,11.3-20.3c24-10.1,49.9,1.9,68.9,16.7c18.6,14.5,33.2,33.5,41.7,55.1c4.3-11.6,9.2-23,14.6-34.2
	c-0.1-0.4-0.2-0.9-0.1-1.3c0.2-12.8-1.5-25.2-6.1-37.2c-4.6-12.1-13-21.9-18-33.7c-4.4-10.4-5.8-24.3,6.6-29.5
	c25.7-10.8,40.2,27.7,45.5,53.6c9.1-13.5,18.9-26.4,29.4-38.8c0.1-0.5,0.2-0.9,0.4-1.4c10.1-21.8,13.3-44.4,11.5-68.3
	c-0.9-12.4-2.3-30.1,10-38.1c11.4-7.5,21.6,3,24.8,13.5c4.1,13.5,4.4,28.6,3.1,43c11.9-10.7,24.3-20.9,37-30.6c0-0.1,0-0.1,0-0.2
	c-0.4-8.6-1.6-16.9-4.3-25.1c-1.9-5.8-5.3-11.7-6.5-17.8c-1.3-7,0.6-14.8,8.2-17.2c19.2-6.1,28.7,23.1,31.4,39.4
	c7.8-5.3,15.6-10.5,23.5-15.5c3.1-17.9,12.3-60.6,38.5-54.4c17.7,4.2,7.9,21.9-3,35.5c16.3-3.4,35-2.4,38.4,13.5
	c5.6,26.3-48.6,14.4-60.3,12.9c-1.4-0.2-2.5-0.8-3.3-1.7c-6.3,3.9-12.5,7.9-18.7,11.9c11.7,1.3,23,4.8,33.4,10.8
	c7.8,4.4,22.3,12.5,16,23.6c-5.7,10.1-19.8,9.1-29.3,6.4c-7.7-2.2-14.7-6.3-22.1-9.1c-11.1-4.3-22.4-5.7-34.2-5.1
	c-0.4,0-0.9,0-1.2-0.1c-15.8,12-31,24.8-45.5,38.4c20.1-3.8,40.8-5,60.6,0.8c15.7,4.6,43.5,17.8,40,38.2
	c-3.7,21.1-34.2,12.1-47.9,8.7c-30.1-7.3-62.6-21.6-92.5-6c-11.4,13.5-22.1,27.6-31.8,42.4c-1,1.5-1.9,3-2.9,4.5
	c16-5.5,32.6-9.7,49.6-7.5c11.3,1.5,34.3,7.6,31.9,23.3c-2,12.7-18.4,14.6-28.5,15.2c-23.8,1.4-48.6-5.1-71,5.9c-1,0.5-2,0.6-3,0.5
	c-6.5,13.4-12.3,27.2-17.1,41.2c27.3-11.7,57.1-15,86.5-9.6c29.1,5.3,68.1,21.6,83.3,48.9c5.1,9.1,6.2,22.7-5.1,27.4
	c-13.9,5.8-34.8-6-47.2-11.5c-39.3-17.4-80.4-45.3-125-29.6c-0.1,0-0.2,0-0.3,0.1c-4.1,15.6-7.1,31.5-8.9,47.6
	c10.6-10.4,22-17.7,38.3-20.7c13.6-2.5,31.8-5.5,40.6,8.3c6.9,10.9,1.5,22.9-10.9,25.5c-8.8,1.9-18.3-0.6-27.1-1
	c-14.8-0.6-29.2,1.3-40.6,11.6c-0.7,0.6-1.4,1-2.1,1.2c-0.6,16.6,0.2,33.2,2.3,49.9c0.9,6.6-9.6,6.5-10.4-0.1
	c-2.2-17.1-3-34.3-2.3-51.4c-0.8-0.4-1.5-1-2-2c-11.9-20.4-35.1-22.5-54.7-31.6C18.9,369.6,9.1,359.2,15.9,348.3z"/>
</svg>
