<?xml version="1.0" encoding="utf-8"?>
<!-- Generator: Adobe Illustrator 22.0.0, SVG Export Plug-In . SVG Version: 6.00 Build 0)  -->
<svg version="1.1" id="Layer_1" xmlns="http://www.w3.org/2000/svg" xmlns:xlink="http://www.w3.org/1999/xlink" x="0px" y="0px"
	 viewBox="0 0 400 400" style="enable-background:new 0 0 400 400;" xml:space="preserve">
<style type="text/css">
	.st0{fill:#3D76B8;}
	.st1{fill:#ECF1FA;}
</style>
<g>
	<path class="st0" d="M94.8,325.2c-18.9-32.2-27.1-70.5-23.1-107.5C77.6,163.6,108.5,111.3,98,58c25.8,28.4,31.7,69.8,29.2,108.1
		c-2.6,38.3-12.5,75.9-13.5,114.3c0.2-33.7,23.5-62.9,29.7-96c5.4-28.9-2-60.8,12.4-86.5c5.2-9.3,12.9-16.9,18.6-25.8
		c9.4-14.5,13.4-32.4,11.1-49.6c7.5,15,4.6,33-0.2,49.1c-4.8,16.1-11.4,32.1-11,48.8c0.5,19.3,10.2,37.6,9.6,56.9
		c-1.1,33-31.5,58.4-37,91c13.5-23.9,27-47.9,40.5-71.8c10.3-18.2,20.8-36.7,36.1-50.9c23.2-21.4,57.7-33.6,68.8-63.2
		c0.3,23.8-15,44.8-31,62.5c-16,17.7-33.9,35-41.1,57.7c-3.4,10.9-4.1,22.6-8.2,33.3c-12.1,32.1-49.5,46.8-69.6,74.6
		c18.5-14.5,37.6-29.2,60.1-36c26.7-8.1,55.5-4.1,82.9,1.2c13.9,2.7,28,5.9,40.4,12.9c-36.7,4.4-72.9,12.7-107.8,24.7
		c-16.8,5.8-33.8,12.5-51.6,12.7c-22.5,0.2-49-8.9-65.1,6.8L94.8,325.2z"/>
</g>
<g>
	<path class="st1" d="M126.4,352.5c-18.9-32.2-27.1-70.5-23.1-107.5c5.9-54.1,36.8-106.4,26.3-159.7c25.8,28.4,31.7,69.8,29.2,108.1
		c-2.6,38.3-12.5,75.9-13.5,114.3c0.2-33.7,23.5-62.9,29.7-96c5.4-28.9-2-60.8,12.4-86.5c5.2-9.3,12.9-16.9,18.6-25.8
		c9.4-14.5,13.4-32.4,11.1-49.6c7.5,15,4.6,33-0.2,49.1c-4.8,16.1-11.4,32.1-11,48.8c0.5,19.3,10.2,37.6,9.6,56.9
		c-1.1,33-31.5,58.4-37,91c13.5-23.9,27-47.9,40.5-71.8c10.3-18.2,20.8-36.7,36.1-50.9c23.2-21.4,57.7-33.6,68.8-63.2
		c0.3,23.8-15,44.8-31,62.5c-16,17.7-33.9,35-41.1,57.7c-3.4,10.9-4.1,22.6-8.2,33.3c-12.1,32.1-49.5,46.8-69.6,74.6
		c18.5-14.5,37.6-29.2,60.1-36c26.7-8.1,55.5-4.1,82.9,1.2c13.9,2.7,28,5.9,40.4,12.9c-36.7,4.4-72.9,12.7-107.8,24.7
		c-16.8,5.8-33.8,12.5-51.6,12.7c-22.5,0.2-49-8.9-65.1,6.8L126.4,352.5z"/>
</g>
</svg>
