<?xml version="1.0" encoding="utf-8"?>
<!-- Generator: Adobe Illustrator 22.0.0, SVG Export Plug-In . SVG Version: 6.00 Build 0)  -->
<svg version="1.1" id="Layer_1" xmlns="http://www.w3.org/2000/svg" xmlns:xlink="http://www.w3.org/1999/xlink" x="0px" y="0px"
	 viewBox="0 0 400 400" style="enable-background:new 0 0 400 400;" xml:space="preserve">
<style type="text/css">
	.st0{fill:#3D76B8;}
	.st1{fill:#ECF1FA;}
</style>
<g>
	<path class="st0" d="M139,365.6c-12.1-13.2-16.7-32.8-11.8-49.9c2.3-8,6.5-15.4,8.9-23.5c5.3-18,1-37.3-3.6-55.5
		c-1.7-6.9-3.5-14-3-21.1c0.6-8.3,4.1-16,7.6-23.5c4.8-10.3,9.6-20.6,14.4-30.9c2.2-4.7,4.4-9.4,5.2-14.5c2-12.5-4.6-24.7-5.8-37.3
		c-0.9-9,1.1-18.3,5.5-26.2c5.8-10.3,15.3-17.8,23.2-26.6c7.9-8.7,14.7-20,12.8-31.7c11.5,13.2,17.1,31.4,15,48.8
		c-2.2,18.1-12.2,35.7-9,53.7c2.9,16.5,16.8,31.1,14,47.6c-1.9,11.1-11.1,20.2-11.6,31.5c-0.2,5.1,1.5,10.1,3.2,15
		c6.1,17.5,12.2,36.8,5.2,54c-3.7,9.1-10.8,16.4-15,25.3c-7.6,15.9-5.5,35.8-15.8,50.2c-8.6,12.2-25.7,17.5-39.8,12.5"/>
</g>
<g>
	<path class="st1" d="M183.7,342.8c10-3.8,20.1-7.7,30.1-11.5c21.4-8.2,45.6-19.2,51.8-41.3c4.4-15.9-1.8-34.2,6.2-48.5
		c4.9-8.8,14.1-14.1,22-20.4c16.8-13.5,28.3-33.4,31.5-54.7c1.8-11.5,1.2-23.5,4.6-34.7c5.7-18.8,21.6-32.5,36.7-45.2
		c-15.8,9.5-35.3,9.5-53.6,12c-18.3,2.5-38.4,9.6-45.9,26.4c-8.8,19.6,2.4,46.1-11.8,62.2c-8.3,9.4-22.2,11.2-32.4,18.3
		c-9.9,6.8-16,18.9-15.7,30.9c0.3,12.2,6.6,25.2,1,36c-6,11.5-22.6,14.3-28.1,26c-5.1,10.8,1.7,23.1,3.6,34.8L183.7,342.8z"/>
</g>
<g>
	<path class="st1" d="M193.8,58.6c-2.1,2.2-4,4.7-5.7,7.2c-1.8,2.5-3.4,5.1-4.8,7.8c-2.9,5.3-5.2,11-6.7,16.8
		c-1.5,5.8-2.3,11.8-2.1,17.7c0,3,0.4,5.9,0.8,8.9c0.3,1.5,0.5,2.9,0.9,4.4c0.4,1.4,0.7,2.9,1.1,4.4c3.2,12,5.8,24.2,6.9,36.8
		c0.5,6.3,0.5,12.7-0.1,19c-0.7,6.4-2.1,12.8-4.8,18.8c-0.7,1.5-1.4,2.9-2.2,4.4l-2.5,4.1c-0.8,1.2-1.6,2.5-2.2,3.8
		c-0.3,0.6-0.7,1.3-1,1.9l-0.9,2c-0.1,0.3-0.3,0.7-0.4,1l-0.4,1l-0.7,2c-0.3,1.4-0.8,2.7-1,4.1c-0.6,2.8-0.7,5.6-0.7,8.5l0.1,2.1
		c0,0.7,0.1,1.4,0.2,2.1c0.1,1.4,0.4,2.9,0.7,4.3c0.6,2.8,1.4,5.7,2.5,8.5c1,2.8,2.2,5.5,3.5,8.2l1,2.2c0.3,0.8,0.6,1.6,0.9,2.4
		c0.3,0.8,0.5,1.6,0.7,2.4c0.2,0.8,0.4,1.6,0.5,2.4c1.2,6.5,0.9,13-0.2,19.2c-1.1,6.2-2.9,12.3-5.1,18.1
		c-4.5,11.6-10.5,22.6-17.6,32.7c5.8-10.9,10.9-22.1,14.5-33.7c1.8-5.8,3.2-11.7,3.9-17.7c0.7-5.9,0.7-11.9-0.6-17.5
		c-0.2-0.7-0.4-1.4-0.5-2.1c-0.2-0.7-0.4-1.4-0.7-2c-0.3-0.6-0.5-1.3-0.8-1.9l-1-2c-0.7-1.4-1.5-2.8-2.1-4.3l-1-2.2
		c-0.3-0.7-0.6-1.5-0.9-2.2c-1.2-3-2.1-6.1-2.9-9.2c-0.3-1.6-0.7-3.2-0.9-4.8c-0.1-0.8-0.3-1.6-0.3-2.4l-0.2-2.5
		c-0.1-3.3,0-6.6,0.7-9.9c0.2-1.6,0.7-3.2,1.1-4.8l0.8-2.3l0.4-1.2c0.1-0.4,0.3-0.8,0.5-1.1l1-2.3c0.3-0.7,0.7-1.5,1.1-2.2
		c0.7-1.5,1.6-2.8,2.4-4.2l2.3-3.8c0.6-1.3,1.3-2.6,1.9-3.9c2.3-5.3,3.7-11,4.4-16.8c0.7-5.9,0.7-11.9,0.3-17.8
		c-0.3-6-1.2-12-2.1-18c-0.5-3-1-6-1.7-9c-0.6-3-1.2-6-1.9-9c-0.3-1.5-0.6-3.1-1-4.6c-0.3-1.6-0.5-3.2-0.7-4.7
		c-0.1-1.6-0.3-3.2-0.4-4.8l-0.1-2.4l0.1-2.4c0.1-3.2,0.4-6.4,1-9.5c0.6-3.1,1.3-6.2,2.3-9.2c2-6,4.8-11.7,8.3-16.9
		C185.1,67.4,189.1,62.6,193.8,58.6z"/>
</g>
<g>
	<path class="st0" d="M322.9,115.8c-8.8,4.6-16.4,11.5-21.3,19.9c-5.2,8.3-6.7,18.1-7.2,27.9c-0.3,4.9-0.3,9.9-0.8,15
		c-0.5,5.1-1.4,10.3-3.6,15.3c-2.2,5-5.6,9.4-9.6,12.9c-2,1.8-4.1,3.3-6.3,4.8c-1.1,0.7-2.2,1.4-3.3,2l-3.2,1.8
		c-4,2.3-7.6,5.2-10.1,8.7c-2.6,3.5-4,7.6-4.8,12.1c-0.8,4.5-1,9.4-1.4,14.4c-0.5,5-1.1,10.3-2.7,15.4c-0.7,2.6-1.6,5.1-2.8,7.5
		c-0.5,1.2-1.2,2.4-1.8,3.6c-0.7,1.1-1.3,2.3-2.1,3.4c-2.8,4.3-5.8,8.4-9.2,12.2c-3.4,3.8-7,7.5-11,10.6c-1,0.8-2,1.5-3.1,2.3
		c-1.1,0.7-2.1,1.4-3.2,2c-2.2,1.3-4.5,2.4-6.9,3.1c2.1-1.4,3.9-3.1,5.7-4.8c1.8-1.7,3.4-3.5,5-5.3c3.2-3.7,6.1-7.6,8.8-11.6
		c2.7-4,5.2-8.2,7.7-12.4c2.4-4,4-8.3,5.2-12.8c1.1-4.5,1.7-9.1,2.1-14c0.5-4.8,0.7-9.9,1.8-15.2c0.5-2.6,1.3-5.3,2.3-7.9
		c1.1-2.6,2.5-5.1,4.3-7.3c3.5-4.5,8-7.7,12.7-10.2l3.3-1.7c1.1-0.5,2.1-1.1,3.1-1.7c2-1.2,4-2.5,5.7-4c3.6-2.9,6.5-6.4,8.6-10.5
		c2.1-4.1,3.2-8.7,3.8-13.5c0.7-4.8,1-9.8,1.6-14.8c0.3-2.5,0.6-5,1.1-7.5c0.5-2.5,1-5,1.8-7.4c0.4-1.2,0.7-2.5,1.2-3.7l1.5-3.5
		c0.6-1.1,1.2-2.3,1.8-3.4c0.3-0.6,0.6-1.1,1-1.6l1-1.6c2.9-4.2,6.4-7.9,10.4-11C314,120.2,318.3,117.6,322.9,115.8z"/>
</g>
</svg>
