<?xml version="1.0" encoding="utf-8"?>
<!-- Generator: Adobe Illustrator 22.0.0, SVG Export Plug-In . SVG Version: 6.00 Build 0)  -->
<svg version="1.1" id="Layer_1" xmlns="http://www.w3.org/2000/svg" xmlns:xlink="http://www.w3.org/1999/xlink" x="0px" y="0px"
	 viewBox="0 0 200 350" style="enable-background:new 0 0 200 350;" xml:space="preserve">
<style type="text/css">
	.st0{fill:#FFFFFF;}
</style>
<path class="st0" d="M199.6,290.2c-2.4-8.7-13.9-11.1-21.6-10.2c-10.6,1.2-20.9,7.3-30.1,13.4c1.1-7.5,1.8-15,2.1-22.6
	c0.4-0.4,0.7-0.8,0.9-1.4c4.3-11.5,21.7-18.5,32.5-22.5c10.4-3.9,20.9-5.5,31.7-7c7.5-1,18.1-2.2,23.3-8.5
	c4.6-5.6,1.4-11.3-3.5-15.3c-13.7-11-32.8-8.1-47.9-2c-14.8,6-27.8,15.5-37.4,28c-0.6-8.4-1.6-16.7-3.1-24.9
	c0.1-0.3,0.3-0.5,0.3-0.8c2.3-8.3,5.7-16.1,10.9-23c5.3-7,12.5-11.8,18-18.5c4.8-5.9,8.3-14.7,1.2-20.4
	c-14.7-11.8-31.3,10.5-39.6,26.3c-3.4-10.5-7.3-20.7-11.8-30.7c0-0.3,0-0.6,0-1c-2.5-16.1-0.3-31.3,5.3-46.5
	c2.9-7.9,7.2-19.1,0.7-26.6c-6-7-14.6-2.1-18.7,4.1c-5.2,8-8.2,17.8-10,27.4C97.2,98,91.1,89.1,84.6,80.4c0,0,0-0.1,0-0.1
	c1.9-5.5,4.2-10.7,7.5-15.5c2.3-3.4,5.7-6.6,7.6-10.3c2.2-4.3,2.4-9.7-2.1-12.7c-11.3-7.5-23,9.6-27.8,19.7
	c-4-4.9-8.2-9.7-12.4-14.5c1.3-12.2,3.3-41.7-14.8-42.6c-12.3-0.6-9.3,12.7-4.7,23.6C28,22.9,15.6,20,10.4,29.7
	c-8.6,16,28.9,18.5,36.8,19.7c1,0.1,1.8-0.1,2.5-0.5c3.3,3.7,6.7,7.4,9.9,11.3c-7.9-1.3-15.9-1.2-23.7,0.7
	C29.9,62.3,19,64.9,21,73.2c1.8,7.6,11.2,9.6,17.8,9.7c5.4,0,10.7-1.3,16.1-1.8c8-0.7,15.6,0.5,23.2,3.1c0.3,0.1,0.6,0.2,0.8,0.2
	c8,10.8,15.5,21.9,22.3,33.4c-12.3-6.2-25.6-10.9-39.6-10.8c-11.1,0.1-31.6,3.4-33.1,17.4c-1.6,14.4,20,14.2,29.5,14.7
	c20.9,0.9,44.7-2.3,61.2,13.4c4.9,10.9,9.2,22.1,12.7,33.5c0.4,1.2,0.7,2.3,1,3.5c-9.4-6.5-19.4-12.4-30.8-14.1
	c-7.6-1.2-23.7-1.5-25.1,9.2c-1.1,8.6,9.2,13,15.7,15.2c15.2,5.4,32.5,5.8,45,17.1c0.6,0.5,1.2,0.8,1.8,0.9c1.7,9.9,2.9,20,3.4,30
	c-15.5-12.7-34.3-20.4-54.4-22.5c-19.9-2-48.3,1.3-63.3,16.1c-5,5-8.3,13.6-1.8,18.8c7.9,6.3,23.8,2.6,32.8,1.4
	c28.8-3.9,60.7-14.3,86.7,4.2c0.1,0,0.1,0.1,0.2,0.1c-0.3,10.9-1.3,21.8-3.1,32.6c-4.9-8.7-11-15.6-21-20.7
	c-8.4-4.2-19.7-9.5-27.9-2.2c-6.5,5.8-5.3,14.6,2.3,18.6c5.3,2.9,12,3,17.8,4.4c9.8,2.4,18.7,6.3,24.2,15.2c0.3,0.5,0.7,0.9,1.1,1.2
	c-2.7,10.9-6.3,21.6-10.9,32c-1.8,4.1,5,6,6.8,1.9c4.7-10.7,8.3-21.7,11.1-33c0.6-0.1,1.1-0.4,1.7-0.9c11.5-11,27-8.1,41.4-10.3
	C193.6,303.5,201.9,298.6,199.6,290.2z"/>
</svg>
