<?xml version="1.0" encoding="utf-8"?>
<!-- Generator: Adobe Illustrator 22.0.0, SVG Export Plug-In . SVG Version: 6.00 Build 0)  -->
<svg version="1.1" id="Layer_1" xmlns="http://www.w3.org/2000/svg" xmlns:xlink="http://www.w3.org/1999/xlink" x="0px" y="0px"
	 viewBox="0 0 400 400" style="enable-background:new 0 0 400 400;" xml:space="preserve">
<style type="text/css">
	.st0{fill:#FEEBE4;}
</style>
<g>
	<path class="st0" d="M38.5,83.7c0-1.1,0-2.5,0.1-4.2s0.2-3.6,0.3-5.7c0.1-2.1,0.3-4.3,0.5-6.6c0.2-2.3,0.4-4.6,0.5-6.8
		c0.4-5.3,0.9-10.9,1.5-17c0-1.8,0.5-3.4,1.4-4.8c0.9-1.4,2.1-2.6,3.5-3.6s3.1-1.8,4.9-2.3c1.8-0.5,3.6-0.8,5.5-0.8
		c1.6,0,3.1,0.2,4.6,0.6c1.5,0.4,2.8,1,3.9,1.8c1.1,0.8,2,1.8,2.7,3.1s1,2.8,1,4.4c0,0.7-0.1,1.5-0.2,2.2c-0.1,0.8-0.3,1.6-0.6,2.4
		c-0.9,2.9-1.9,6.1-2.9,9.6c-1,3.5-2.1,6.9-3.2,10.4s-2.2,6.7-3.2,9.8c-1,3.1-2,5.8-2.8,7.9c-1,2.9-2.5,5.1-4.4,6.5
		c-1.9,1.4-3.8,2.1-5.8,2.1c-1.9,0-3.6-0.7-5.1-2.2C39.2,88.9,38.5,86.7,38.5,83.7z M73.9,83.7c0-1.1,0-2.5,0.1-4.2
		c0.1-1.7,0.2-3.6,0.3-5.7c0.1-2.1,0.3-4.3,0.5-6.6c0.2-2.3,0.4-4.6,0.5-6.8c0.4-5.3,0.9-10.9,1.5-17c0-1.8,0.5-3.4,1.4-4.8
		c0.9-1.4,2.1-2.6,3.5-3.6s3.1-1.8,4.9-2.3c1.8-0.5,3.6-0.8,5.5-0.8c1.6,0,3.1,0.2,4.6,0.6c1.5,0.4,2.8,1,3.9,1.8
		c1.1,0.8,2,1.8,2.7,3.1s1,2.8,1,4.4c0,0.7-0.1,1.5-0.2,2.2c-0.1,0.8-0.3,1.6-0.6,2.4c-0.9,2.9-1.9,6.1-2.9,9.6
		c-1,3.5-2.1,6.9-3.2,10.4s-2.2,6.7-3.2,9.8c-1,3.1-2,5.8-2.8,7.9c-1,2.9-2.5,5.1-4.4,6.5c-1.9,1.4-3.8,2.1-5.8,2.1
		c-1.9,0-3.6-0.7-5.1-2.2C74.6,88.9,73.9,86.7,73.9,83.7z"/>
</g>
</svg>
